<svg xmlns="http://www.w3.org/2000/svg" viewBox="0 0 661.34 200" width="661.34" height="200" role="img"><title>AquaSpecter</title><rect width="100%" height="100%" fill="#fff"/><path d="M50.37 120L41.44 120L57.78 68.16L70.49 68.16L86.84 120L77.91 120L74.34 108.77L53.9 108.77L50.37 120M56.45 100.67L71.75 100.67L64.05 76.55L56.45 100.67M184.56 121.08L184.56 121.08Q178.36 121.08 173.67 118.56Q168.97 116.04 166.32 111.47Q163.68 106.9 163.68 100.74L163.68 100.74L163.68 68.23L172.46 68.16L172.46 100.52Q172.46 103.44 173.45 105.74Q174.44 108.05 176.13 109.65Q177.82 111.25 180.02 112.08Q182.22 112.91 184.56 112.91L184.56 112.91Q186.97 112.91 189.15 112.06Q191.32 111.22 193.02 109.61Q194.71 108.01 195.68 105.71Q196.65 103.4 196.65 100.52L196.65 100.52L196.65 68.16L205.44 68.16L205.44 100.74Q205.44 106.9 202.79 111.47Q200.14 116.04 195.45 118.56Q190.75 121.08 184.56 121.08M224.44 120L215.52 120L231.86 68.16L244.57 68.16L260.91 120L251.98 120L248.42 108.77L227.97 108.77L224.44 120M230.53 100.67L245.83 100.67L238.12 76.55L230.53 100.67M290.9 121.08L290.9 121.08Q285.21 121.08 280.66 119.1Q276.1 117.12 273.17 113.43Q270.24 109.74 269.44 104.66L269.44 104.66L278.44 103.3Q279.6 107.9 283.18 110.42Q286.76 112.94 291.44 112.94L291.44 112.94Q294.21 112.94 296.66 112.08Q299.11 111.22 300.64 109.56Q302.17 107.9 302.17 105.49L302.17 105.49Q302.17 104.41 301.81 103.49Q301.45 102.58 300.75 101.86Q300.04 101.14 298.95 100.54Q297.85 99.95 296.41 99.52L296.41 99.52L283.02 95.56Q281.29 95.05 279.29 94.21Q277.29 93.36 275.51 91.87Q273.73 90.37 272.59 88.05Q271.46 85.73 271.46 82.31L271.46 82.31Q271.46 77.3 274 73.9Q276.54 70.5 280.84 68.81Q285.14 67.12 290.4 67.15L290.4 67.15Q295.72 67.19 299.9 68.97Q304.08 70.75 306.88 74.14Q309.69 77.52 310.84 82.31L310.84 82.31L301.52 83.93Q300.94 81.19 299.31 79.27Q297.67 77.34 295.31 76.33Q292.95 75.32 290.29 75.25L290.29 75.25Q287.7 75.22 285.48 76.03Q283.27 76.84 281.92 78.35Q280.57 79.86 280.57 81.88L280.57 81.88Q280.57 83.78 281.72 84.99Q282.87 86.2 284.58 86.9Q286.29 87.6 288.06 88.07L288.06 88.07L297.34 90.66Q299.25 91.16 301.63 92.03Q304 92.89 306.2 94.44Q308.4 95.99 309.82 98.51Q311.24 101.03 311.24 104.92L311.24 104.92Q311.24 108.95 309.57 111.99Q307.89 115.03 305.05 117.05Q302.2 119.06 298.55 120.07Q294.9 121.08 290.9 121.08M333.49 120L324.81 120L324.81 68.16L346.23 68.16Q346.99 68.16 348.18 68.21Q349.36 68.27 350.37 68.45L350.37 68.45Q354.87 69.13 357.81 71.44Q360.74 73.74 362.16 77.25Q363.58 80.76 363.58 85.04L363.58 85.04Q363.58 89.29 362.14 92.8Q360.7 96.31 357.77 98.62Q354.84 100.92 350.37 101.6L350.37 101.6Q349.36 101.75 348.16 101.82Q346.95 101.89 346.23 101.89L346.23 101.89L333.49 101.89L333.49 120M333.49 76.3L333.49 93.79L345.87 93.79Q346.59 93.79 347.49 93.72Q348.39 93.65 349.15 93.43L349.15 93.43Q351.31 92.89 352.55 91.52Q353.79 90.16 354.31 88.43Q354.84 86.7 354.84 85.04L354.84 85.04Q354.84 83.39 354.31 81.64Q353.79 79.9 352.55 78.53Q351.31 77.16 349.15 76.62L349.15 76.62Q348.39 76.4 347.49 76.35Q346.59 76.3 345.87 76.3L345.87 76.3L333.49 76.3M410.02 120L376.54 120L376.54 68.16L410.02 68.16L410.02 76.3L385.22 76.3L385.22 89.08L405.7 89.08L405.7 97.21L385.22 97.21L385.22 111.86L410.02 111.86L410.02 120M444.55 121.08L444.55 121.08Q436.77 121.08 431.23 117.68Q425.68 114.28 422.71 108.19Q419.74 102.11 419.74 94.08L419.74 94.08Q419.74 86.05 422.71 79.97Q425.68 73.88 431.23 70.48Q436.77 67.08 444.55 67.08L444.55 67.08Q453.51 67.08 459.49 71.56Q465.46 76.04 467.88 83.64L467.88 83.64L459.13 86.05Q457.62 80.98 453.98 78.11Q450.34 75.25 444.55 75.25L444.55 75.25Q439.33 75.25 435.85 77.59Q432.38 79.93 430.63 84.16Q428.89 88.39 428.85 94.08L428.85 94.08Q428.85 99.77 430.6 104Q432.34 108.23 435.84 110.57Q439.33 112.91 444.55 112.91L444.55 112.91Q450.34 112.91 453.98 110.03Q457.62 107.15 459.13 102.11L459.13 102.11L467.88 104.52Q465.46 112.12 459.49 116.6Q453.51 121.08 444.55 121.08M502.69 120L494.01 120L494.01 76.3L477.24 76.3L477.24 68.16L519.46 68.16L519.46 76.3L502.69 76.3L502.69 120M564.46 120L530.98 120L530.98 68.16L564.46 68.16L564.46 76.3L539.66 76.3L539.66 89.08L560.14 89.08L560.14 97.21L539.66 97.21L539.66 111.86L564.46 111.86L564.46 120M587.54 120L578.86 120L578.86 68.16L600.28 68.16Q601.04 68.16 602.23 68.21Q603.42 68.27 604.42 68.45L604.42 68.45Q608.92 69.13 611.86 71.44Q614.79 73.74 616.21 77.25Q617.64 80.76 617.64 85.04L617.64 85.04Q617.64 91.38 614.43 95.92L614.43 95.92Q612.38 98.87 608.89 100.34L608.89 100.34L618.46 120L608.64 120L599.85 101.89L587.54 101.89L587.54 120M587.54 76.3L587.54 93.79L599.92 93.79Q600.64 93.79 601.54 93.72Q602.44 93.65 603.2 93.43L603.2 93.43Q605.36 92.89 606.6 91.52Q607.84 90.16 608.37 88.43Q608.89 86.7 608.89 85.04Q608.89 83.39 608.37 81.64Q607.84 79.9 606.6 78.53Q605.36 77.16 603.2 76.62L603.2 76.62Q602.44 76.4 601.54 76.35Q600.64 76.3 599.92 76.3L599.92 76.3L587.54 76.3" fill="#0B2A4A"/>
<circle cx="123.46" cy="94.08" r="23.08" fill="none" stroke="#0B2A4A" stroke-width="8.68"/>
<path d="M126.75 112.18q7.68 -7.13 15.36 0t15.36 0" fill="none" stroke="#1497B8" stroke-width="7.11" stroke-linecap="round"/>
<path d="M44.39 164L43.09 164L43.09 152.84L44.34 152.84L48.56 161.73L52.75 152.84L54.02 152.84L54.02 163.99L52.71 163.99L52.71 155.87L48.92 164L48.18 164L44.39 155.87L44.39 164M65.74 164.23L65.74 164.23Q64.07 164.23 62.91 163.5Q61.75 162.76 61.14 161.45Q60.53 160.14 60.53 158.42L60.53 158.42Q60.53 156.7 61.14 155.39Q61.75 154.08 62.91 153.34Q64.07 152.61 65.74 152.61L65.74 152.61Q67.41 152.61 68.57 153.34Q69.74 154.08 70.34 155.39Q70.95 156.7 70.95 158.42L70.95 158.42Q70.95 160.14 70.34 161.45Q69.74 162.76 68.57 163.5Q67.41 164.23 65.74 164.23M65.74 162.92L65.74 162.92Q66.99 162.92 67.82 162.35Q68.65 161.78 69.07 160.77Q69.48 159.75 69.48 158.42L69.48 158.42Q69.48 157.08 69.07 156.07Q68.65 155.06 67.82 154.5Q66.99 153.93 65.74 153.93L65.74 153.93Q64.49 153.92 63.67 154.48Q62.84 155.05 62.42 156.06Q62 157.08 62 158.42L62 158.42Q61.99 159.75 62.41 160.76Q62.82 161.77 63.66 162.34Q64.49 162.91 65.74 162.92M78.85 164L77.46 164L77.46 152.84L78.85 152.84L84.67 161.56L84.67 152.84L86.07 152.84L86.07 164L84.67 164L78.85 155.27L78.85 164M94.73 164L93.35 164L93.35 152.84L94.73 152.84L94.73 164M106.27 164L104.89 164L104.89 154.15L101.09 154.15L101.09 152.84L110.08 152.84L110.08 154.15L106.27 154.15L106.27 164M120.86 164.23L120.86 164.23Q119.2 164.23 118.04 163.5Q116.87 162.76 116.26 161.45Q115.66 160.14 115.66 158.42L115.66 158.42Q115.66 156.7 116.26 155.39Q116.87 154.08 118.04 153.34Q119.2 152.61 120.86 152.61L120.86 152.61Q122.54 152.61 123.7 153.34Q124.86 154.08 125.47 155.39Q126.07 156.7 126.07 158.42L126.07 158.42Q126.07 160.14 125.47 161.45Q124.86 162.76 123.7 163.5Q122.54 164.23 120.86 164.23M120.86 162.92L120.86 162.92Q122.11 162.92 122.94 162.35Q123.78 161.78 124.19 160.77Q124.61 159.75 124.61 158.42L124.61 158.42Q124.61 157.08 124.19 156.07Q123.78 155.06 122.94 154.5Q122.11 153.93 120.86 153.93L120.86 153.93Q119.62 153.92 118.79 154.48Q117.97 155.05 117.55 156.06Q117.13 157.08 117.12 158.42L117.12 158.42Q117.11 159.75 117.53 160.76Q117.95 161.77 118.78 162.34Q119.62 162.91 120.86 162.92M133.96 164L132.58 164L132.58 152.84L136.99 152.84Q137.15 152.84 137.38 152.85Q137.6 152.86 137.81 152.9L137.81 152.9Q138.72 153.04 139.34 153.52Q139.95 154 140.26 154.73Q140.57 155.47 140.57 156.36L140.57 156.36Q140.57 157.65 139.9 158.6L139.9 158.6Q139.43 159.26 138.65 159.58L138.65 159.58L140.8 164L139.22 164L137.22 159.88L133.96 159.88L133.96 164M133.96 154.15L133.96 158.57L136.95 158.57Q137.09 158.57 137.28 158.55Q137.47 158.54 137.64 158.5L137.64 158.5Q138.18 158.37 138.51 158.04Q138.85 157.71 139.01 157.27Q139.16 156.82 139.16 156.36Q139.16 155.89 139.01 155.45Q138.85 155 138.51 154.67Q138.18 154.34 137.64 154.22L137.64 154.22Q137.47 154.17 137.28 154.16Q137.09 154.15 136.95 154.15L136.95 154.15L133.96 154.15M154.52 164L147.47 164L147.47 152.84L154.52 152.84L154.52 154.15L148.85 154.15L148.85 157.65L153.59 157.65L153.59 158.95L148.85 158.95L148.85 162.69L154.52 162.69L154.52 164M165.47 164.23L165.47 164.23Q163.8 164.23 162.64 163.5Q161.47 162.76 160.87 161.45Q160.26 160.14 160.26 158.42L160.26 158.42Q160.26 156.7 160.87 155.39Q161.47 154.08 162.64 153.34Q163.8 152.61 165.47 152.61L165.47 152.61Q167.14 152.61 168.3 153.34Q169.46 154.08 170.07 155.39Q170.67 156.7 170.67 158.42L170.67 158.42Q170.67 160.14 170.07 161.45Q169.46 162.76 168.3 163.5Q167.14 164.23 165.47 164.23M165.47 162.92L165.47 162.92Q166.71 162.92 167.55 162.35Q168.38 161.78 168.79 160.77Q169.21 159.75 169.21 158.42L169.21 158.42Q169.21 157.08 168.79 156.07Q168.38 155.06 167.55 154.5Q166.71 153.93 165.47 153.93L165.47 153.93Q164.22 153.92 163.39 154.48Q162.57 155.05 162.15 156.06Q161.73 157.08 161.72 158.42L161.72 158.42Q161.71 159.75 162.13 160.76Q162.55 161.77 163.38 162.34Q164.22 162.91 165.47 162.92M192.3 164L185.24 164L185.24 152.84L192.3 152.84L192.3 154.15L186.62 154.15L186.62 157.65L191.37 157.65L191.37 158.95L186.62 158.95L186.62 162.69L192.3 162.69L192.3 164M205.83 164L199.27 164L199.27 152.84L200.65 152.84L200.65 162.69L205.83 162.69L205.83 164M219.16 164L212.1 164L212.1 152.84L219.16 152.84L219.16 154.15L213.48 154.15L213.48 157.65L218.23 157.65L218.23 158.95L213.48 158.95L213.48 162.69L219.16 162.69L219.16 164M230.18 164.23L230.18 164.23Q228.51 164.23 227.35 163.5Q226.19 162.76 225.58 161.45Q224.97 160.14 224.97 158.42L224.97 158.42Q224.97 156.7 225.58 155.39Q226.19 154.08 227.35 153.34Q228.51 152.61 230.18 152.61L230.18 152.61Q232.12 152.61 233.37 153.59Q234.62 154.58 235.09 156.24L235.09 156.24L233.69 156.61Q233.35 155.37 232.47 154.65Q231.6 153.93 230.18 153.93L230.18 153.93Q228.93 153.93 228.1 154.49Q227.27 155.06 226.85 156.07Q226.43 157.08 226.43 158.42L226.43 158.42Q226.42 159.75 226.84 160.76Q227.26 161.78 228.09 162.35Q228.93 162.92 230.18 162.92L230.18 162.92Q231.6 162.92 232.47 162.19Q233.35 161.47 233.69 160.23L233.69 160.23L235.09 160.6Q234.62 162.26 233.37 163.24Q232.12 164.23 230.18 164.23M246.01 164L244.63 164L244.63 154.15L240.83 154.15L240.83 152.84L249.82 152.84L249.82 154.15L246.01 154.15L246.01 164M257.4 164L256.02 164L256.02 152.84L260.43 152.84Q260.59 152.84 260.81 152.85Q261.04 152.86 261.25 152.9L261.25 152.9Q262.15 153.04 262.77 153.52Q263.39 154 263.7 154.73Q264.01 155.47 264.01 156.36L264.01 156.36Q264.01 157.65 263.33 158.6L263.33 158.6Q262.86 159.26 262.08 159.58L262.08 159.58L264.24 164L262.66 164L260.66 159.88L257.4 159.88L257.4 164M257.4 154.15L257.4 158.57L260.38 158.57Q260.53 158.57 260.72 158.55Q260.91 158.54 261.08 158.5L261.08 158.5Q261.61 158.37 261.95 158.04Q262.29 157.71 262.44 157.27Q262.6 156.82 262.6 156.36Q262.6 155.89 262.44 155.45Q262.29 155 261.95 154.67Q261.61 154.34 261.08 154.22L261.08 154.22Q260.91 154.17 260.72 154.16Q260.53 154.15 260.38 154.15L260.38 154.15L257.4 154.15M275.49 164.23L275.49 164.23Q273.83 164.23 272.66 163.5Q271.5 162.76 270.89 161.45Q270.28 160.14 270.28 158.42L270.28 158.42Q270.28 156.7 270.89 155.39Q271.5 154.08 272.66 153.34Q273.83 152.61 275.49 152.61L275.49 152.61Q277.17 152.61 278.33 153.34Q279.49 154.08 280.1 155.39Q280.7 156.7 280.7 158.42L280.7 158.42Q280.7 160.14 280.1 161.45Q279.49 162.76 278.33 163.5Q277.17 164.23 275.49 164.23M275.49 162.92L275.49 162.92Q276.74 162.92 277.57 162.35Q278.41 161.78 278.82 160.77Q279.24 159.75 279.24 158.42L279.24 158.42Q279.24 157.08 278.82 156.07Q278.41 155.06 277.57 154.5Q276.74 153.93 275.49 153.93L275.49 153.93Q274.24 153.92 273.42 154.48Q272.59 155.05 272.17 156.06Q271.76 157.08 271.75 158.42L271.75 158.42Q271.74 159.75 272.16 160.76Q272.58 161.77 273.41 162.34Q274.24 162.91 275.49 162.92M296.86 163.32L295.97 164.22L294.99 163.25Q294.82 163.38 294.63 163.5L294.63 163.5Q293.47 164.23 291.8 164.23L291.8 164.23Q290.13 164.23 288.97 163.5Q287.81 162.76 287.2 161.45Q286.59 160.14 286.59 158.42Q286.59 156.7 287.2 155.39Q287.81 154.08 288.97 153.34Q290.13 152.61 291.8 152.61L291.8 152.61Q293.47 152.61 294.63 153.34Q295.8 154.08 296.4 155.39Q297.01 156.7 297.01 158.42Q297.01 160.14 296.4 161.45L296.4 161.45Q296.18 161.93 295.88 162.34L295.88 162.34L296.86 163.32M291.8 162.92L291.8 162.92Q293.05 162.92 293.88 162.35L293.88 162.35Q293.94 162.31 294 162.26L294 162.26L292.92 161.19L293.83 160.29L294.85 161.31Q295.01 161.06 295.13 160.77L295.13 160.77Q295.54 159.75 295.54 158.42L295.54 158.42Q295.54 157.08 295.13 156.07Q294.71 155.06 293.88 154.5Q293.05 153.93 291.8 153.93Q290.55 153.92 289.72 154.48Q288.9 155.05 288.48 156.06Q288.06 157.08 288.05 158.42L288.05 158.42Q288.05 159.75 288.47 160.76Q288.88 161.77 289.72 162.34Q290.55 162.91 291.8 162.92M307.92 164.23L307.92 164.23Q306.62 164.23 305.63 163.7Q304.64 163.16 304.08 162.2Q303.52 161.23 303.52 159.93L303.52 159.93L303.52 152.85L304.91 152.84L304.91 159.82Q304.91 160.61 305.18 161.19Q305.45 161.78 305.89 162.16Q306.33 162.55 306.86 162.74Q307.39 162.93 307.92 162.93L307.92 162.93Q308.45 162.93 308.99 162.74Q309.52 162.54 309.96 162.16Q310.4 161.78 310.66 161.19Q310.92 160.6 310.92 159.82L310.92 159.82L310.92 152.84L312.32 152.84L312.32 159.93Q312.32 161.23 311.76 162.19Q311.2 163.16 310.2 163.7Q309.21 164.23 307.92 164.23M321.9 149L320.88 151.56L319.76 151.56L320.78 149L321.9 149M320.98 164L319.6 164L319.6 152.84L320.98 152.84L320.98 164M329.58 164L328.27 164L328.27 152.84L329.52 152.84L333.74 161.73L337.93 152.84L339.2 152.84L339.2 163.99L337.89 163.99L337.89 155.87L334.11 164L333.37 164L329.58 155.87L329.58 164M347.87 164L346.49 164L346.49 152.84L347.87 152.84L347.87 164M359.74 164.23L359.74 164.23Q358.08 164.23 356.91 163.5Q355.75 162.76 355.14 161.45Q354.53 160.14 354.53 158.42L354.53 158.42Q354.53 156.7 355.14 155.39Q355.75 154.08 356.91 153.34Q358.08 152.61 359.74 152.61L359.74 152.61Q361.68 152.61 362.93 153.59Q364.18 154.58 364.66 156.24L364.66 156.24L363.25 156.61Q362.91 155.37 362.04 154.65Q361.16 153.93 359.74 153.93L359.74 153.93Q358.49 153.93 357.67 154.49Q356.84 155.06 356.42 156.07Q356 157.08 355.99 158.42L355.99 158.42Q355.98 159.75 356.4 160.76Q356.82 161.78 357.66 162.35Q358.49 162.92 359.74 162.92L359.74 162.92Q361.16 162.92 362.04 162.19Q362.91 161.47 363.25 160.23L363.25 160.23L364.66 160.6Q364.18 162.26 362.93 163.24Q361.68 164.23 359.74 164.23M375.91 164.23L375.91 164.23Q374.24 164.23 373.08 163.5Q371.92 162.76 371.31 161.45Q370.7 160.14 370.7 158.42L370.7 158.42Q370.7 156.7 371.31 155.39Q371.92 154.08 373.08 153.34Q374.24 152.61 375.91 152.61L375.91 152.61Q377.58 152.61 378.75 153.34Q379.91 154.08 380.51 155.39Q381.12 156.7 381.12 158.42L381.12 158.42Q381.12 160.14 380.51 161.45Q379.91 162.76 378.75 163.5Q377.58 164.23 375.91 164.23M375.91 162.92L375.91 162.92Q377.16 162.92 377.99 162.35Q378.82 161.78 379.24 160.77Q379.65 159.75 379.65 158.42L379.65 158.42Q379.65 157.08 379.24 156.07Q378.82 155.06 377.99 154.5Q377.16 153.93 375.91 153.93L375.91 153.93Q374.66 153.92 373.84 154.48Q373.01 155.05 372.59 156.06Q372.17 157.08 372.17 158.42L372.17 158.42Q372.16 159.75 372.58 160.76Q372.99 161.77 373.83 162.34Q374.66 162.91 375.91 162.92M399.13 164L395.69 164L395.69 152.84L399.13 152.84Q399.3 152.84 399.72 152.85Q400.15 152.86 400.54 152.91L400.54 152.91Q401.83 153.08 402.7 153.85Q403.58 154.62 404.02 155.81Q404.46 156.99 404.46 158.42L404.46 158.42Q404.46 159.85 404.02 161.03Q403.58 162.22 402.7 162.99Q401.83 163.76 400.54 163.93L400.54 163.93Q400.15 163.98 399.72 163.99Q399.29 164 399.13 164L399.13 164M397.1 154.16L397.1 162.68L399.13 162.68Q399.42 162.68 399.79 162.66Q400.15 162.64 400.42 162.6L400.42 162.6Q401.34 162.43 401.9 161.83Q402.47 161.23 402.73 160.34Q402.99 159.45 402.99 158.42L402.99 158.42Q402.99 157.37 402.73 156.47Q402.46 155.58 401.89 154.99Q401.33 154.41 400.42 154.24L400.42 154.24Q400.15 154.19 399.78 154.17Q399.41 154.16 399.13 154.16L399.13 154.16L397.1 154.16M418.25 164L411.2 164L411.2 152.84L418.25 152.84L418.25 154.15L412.58 154.15L412.58 157.65L417.32 157.65L417.32 158.95L412.58 158.95L412.58 162.69L418.25 162.69L418.25 164M433.79 164L432.36 164L436.1 152.84L438.02 152.84L441.75 164L440.32 164L439.44 161.39L434.67 161.39L433.79 164M435.1 160.09L439 160.09L437.04 154.29L435.1 160.09M452.32 164.23L452.32 164.23Q451.17 164.23 450.22 163.83Q449.28 163.43 448.6 162.67Q447.91 161.92 447.55 160.84Q447.18 159.77 447.18 158.42L447.18 158.42Q447.18 156.64 447.81 155.34Q448.45 154.03 449.6 153.32Q450.76 152.62 452.32 152.62L452.32 152.62Q454.19 152.62 455.34 153.49Q456.49 154.36 456.92 155.87L456.92 155.87L455.52 156.16Q455.18 155.14 454.38 154.54Q453.58 153.93 452.39 153.93L452.39 153.93Q451.14 153.93 450.31 154.49Q449.49 155.05 449.07 156.06Q448.65 157.08 448.64 158.42L448.64 158.42Q448.63 159.75 449.05 160.76Q449.47 161.77 450.3 162.34Q451.14 162.91 452.39 162.92L452.39 162.92Q453.46 162.92 454.2 162.5Q454.94 162.09 455.34 161.3Q455.74 160.5 455.83 159.4L455.83 159.4L453.46 159.4L453.46 158.26L457.28 158.26Q457.31 158.41 457.31 158.63Q457.31 158.84 457.31 158.92L457.31 158.92Q457.31 160.44 456.75 161.65Q456.18 162.85 455.06 163.54Q453.95 164.23 452.32 164.23M468.23 164.23L468.23 164.23Q466.93 164.23 465.94 163.7Q464.95 163.16 464.39 162.2Q463.82 161.23 463.82 159.93L463.82 159.93L463.82 152.85L465.22 152.84L465.22 159.82Q465.22 160.61 465.49 161.19Q465.75 161.78 466.2 162.16Q466.64 162.55 467.17 162.74Q467.7 162.93 468.23 162.93L468.23 162.93Q468.76 162.93 469.3 162.74Q469.83 162.54 470.27 162.16Q470.71 161.78 470.97 161.19Q471.23 160.6 471.23 159.82L471.23 159.82L471.23 152.84L472.63 152.84L472.63 159.93Q472.63 161.23 472.07 162.19Q471.5 163.16 470.51 163.7Q469.52 164.23 468.23 164.23M479.95 164L478.52 164L482.25 152.84L484.18 152.84L487.91 164L486.48 164L485.59 161.39L480.83 161.39L479.95 164M481.26 160.09L485.16 160.09L483.2 154.29L481.26 160.09" fill="#1497B8"/></svg>
