<?xml version="1.0" encoding="utf-8"?>
<!-- Generator: Adobe Illustrator 14.0.0, SVG Export Plug-In  -->
<!DOCTYPE svg PUBLIC "-//W3C//DTD SVG 1.1//EN" "http://www.w3.org/Graphics/SVG/1.1/DTD/svg11.dtd" [
	<!ENTITY ns_flows "http://ns.adobe.com/Flows/1.0/">
]>
<svg version="1.1"
	 xmlns="http://www.w3.org/2000/svg" xmlns:xlink="http://www.w3.org/1999/xlink" xmlns:a="http://ns.adobe.com/AdobeSVGViewerExtensions/3.0/"
	 x="0px" y="0px" width="552px" height="439px" viewBox="-4 -3.608 552 439" enable-background="new -4 -3.608 552 439"
	 xml:space="preserve">
<defs>
	<symbol  id="New_Symbolwater" viewBox="-10.2 -5.91 20.4 11.82">
		<path opacity="0.03" fill="#49C8F5" d="M0.636,0.361c0-2.485-2.015-4.5-4.5-4.5s-4.5,2.015-4.5,4.5s2.015,4.5,4.5,4.5
			S0.636,2.847,0.636,0.361z"/>
		<path opacity="0.03" fill="#FFFFFF" stroke="#44B3E6" stroke-width="0.75" d="M-5.586,3.416c0-1.171-0.949-2.12-2.12-2.12
			s-2.12,0.949-2.12,2.12c0,1.17,0.949,2.119,2.12,2.119S-5.586,4.586-5.586,3.416z"/>
		<path opacity="0.03" fill="#FFFFFF" stroke="#44B3E6" stroke-width="0.75" d="M-4.664-3.416c0-1.17-0.949-2.119-2.12-2.119
			s-2.12,0.949-2.12,2.119c0,1.171,0.949,2.12,2.12,2.12S-4.664-2.245-4.664-3.416z"/>
		<path opacity="0.11" fill="#49C8F5" d="M2.687,0.361c0-2.485-2.015-4.5-4.5-4.5s-4.5,2.015-4.5,4.5s2.015,4.5,4.5,4.5
			S2.687,2.847,2.687,0.361z"/>
		<path opacity="0.11" fill="#FFFFFF" stroke="#44B3E6" stroke-width="0.75" d="M-3.536,3.416c0-1.171-0.949-2.12-2.12-2.12
			s-2.12,0.949-2.12,2.12c0,1.17,0.949,2.119,2.12,2.119S-3.536,4.586-3.536,3.416z"/>
		<path opacity="0.11" fill="#FFFFFF" stroke="#44B3E6" stroke-width="0.75" d="M-2.613-3.416c0-1.17-0.949-2.119-2.12-2.119
			s-2.12,0.949-2.12,2.119c0,1.171,0.949,2.12,2.12,2.12S-2.613-2.245-2.613-3.416z"/>
		<path opacity="0.53" fill="#49C8F5" d="M4.106,0.361c0-2.485-2.015-4.5-4.5-4.5s-4.5,2.015-4.5,4.5s2.015,4.5,4.5,4.5
			S4.106,2.847,4.106,0.361z"/>
		<polygon opacity="0.32" fill="#49C8F5" points="9.438,0.713 8.677,1.152 8.677,0.697 4.43,0.697 4.43,-0.078 8.677,-0.078 
			8.677,-0.605 9.438,-0.166 10.2,0.273 		"/>
		<path opacity="0.53" fill="#FFFFFF" stroke="#44B3E6" stroke-width="0.75" d="M-2.116,3.416c0-1.171-0.949-2.12-2.12-2.12
			s-2.12,0.949-2.12,2.12c0,1.17,0.949,2.119,2.12,2.119S-2.116,4.586-2.116,3.416z"/>
		<path opacity="0.53" fill="#FFFFFF" stroke="#44B3E6" stroke-width="0.75" d="M-1.193-3.416c0-1.17-0.949-2.119-2.12-2.119
			s-2.12,0.949-2.12,2.119c0,1.171,0.949,2.12,2.12,2.12S-1.193-2.245-1.193-3.416z"/>
	</symbol>
	<symbol  id="laser" viewBox="-214.5 -11.239 429 22.479">
		<linearGradient id="SVGID_1_" gradientUnits="userSpaceOnUse" x1="0" y1="7.334" x2="-6.410944e-07" y2="-7.3325">
			<stop  offset="0" style="stop-color:#EF3835;stop-opacity:0"/>
			<stop  offset="0.5031" style="stop-color:#EE2726"/>
			<stop  offset="1" style="stop-color:#EF3835;stop-opacity:0"/>
		</linearGradient>
		<polygon fill="url(#SVGID_1_)" points="-214.5,-4.832 214.5,-4.832 214.5,6.168 -214.5,6.168 		"/>
		<linearGradient id="SVGID_2_" gradientUnits="userSpaceOnUse" x1="-62.9082" y1="10.5371" x2="-62.9082" y2="-13.4629">
			<stop  offset="0" style="stop-color:#EF3835;stop-opacity:0"/>
			<stop  offset="0.5031" style="stop-color:#EE2726"/>
			<stop  offset="1" style="stop-color:#EF3835;stop-opacity:0"/>
		</linearGradient>
		<polygon fill="url(#SVGID_2_)" points="-55.512,-11.239 -71.996,0.001 -55.512,11.239 -53.821,8.761 -66.67,0.001 -53.821,-8.761 
			-55.512,-11.239 		"/>
	</symbol>
	<symbol  id="particle" viewBox="-39.416 -15 78.832 30">
		<path opacity="0.03" fill="#5EB647" d="M16.602,0c0-8.284-6.716-15-15-15s-15,6.716-15,15s6.716,15,15,15S16.602,8.284,16.602,0z"
			/>
		<path opacity="0.31" fill="#5EB647" d="M19.626,0c0-8.284-6.716-15-15-15s-15,6.716-15,15s6.716,15,15,15S19.626,8.284,19.626,0z"
			/>
		<path opacity="0.67" fill="#5EB647" d="M21.39,0c0-8.284-6.716-15-15-15s-15,6.716-15,15s6.716,15,15,15S21.39,8.284,21.39,0z"/>
		<polygon opacity="0.47" fill="#5EB647" points="36.359,1.682 33.304,3.445 33.304,1.619 23.333,1.619 23.333,-1.492 
			33.304,-1.492 33.304,-3.607 36.359,-1.847 39.416,-0.08 		"/>
		<linearGradient id="SVGID_3_" gradientUnits="userSpaceOnUse" x1="-34.5444" y1="9.6387" x2="-6.6587" y2="9.6387">
			<stop  offset="0" style="stop-color:#13B24B;stop-opacity:0"/>
			<stop  offset="1" style="stop-color:#13B24B"/>
		</linearGradient>
		<polygon opacity="0.37" fill="url(#SVGID_3_)" points="-11.614,8.714 -34.544,8.714 -29.589,10.562 -6.659,10.562 		"/>
		<linearGradient id="SVGID_4_" gradientUnits="userSpaceOnUse" x1="-39.416" y1="-9.5117" x2="-11.5303" y2="-9.5117">
			<stop  offset="0" style="stop-color:#13B24B;stop-opacity:0"/>
			<stop  offset="1" style="stop-color:#13B24B"/>
		</linearGradient>
		<polygon opacity="0.37" fill="url(#SVGID_4_)" points="-16.486,-10.437 -39.416,-10.437 -34.46,-8.588 -11.53,-8.588 		"/>
		<linearGradient id="SVGID_5_" gradientUnits="userSpaceOnUse" x1="-25.7251" y1="-0.4414" x2="2.1606" y2="-0.4414">
			<stop  offset="0" style="stop-color:#13B24B;stop-opacity:0"/>
			<stop  offset="1" style="stop-color:#13B24B"/>
		</linearGradient>
		<polygon opacity="0.37" fill="url(#SVGID_5_)" points="-2.795,-1.365 -25.725,-1.365 -20.77,0.482 2.161,0.482 		"/>
		<radialGradient id="SVGID_6_" cx="7.3481" cy="0.1924" r="15.2961" fx="7.8327" fy="2.0797" gradientUnits="userSpaceOnUse">
			<stop  offset="0.1104" style="stop-color:#C1E0B2"/>
			<stop  offset="0.2459" style="stop-color:#B3DAA5"/>
			<stop  offset="0.5169" style="stop-color:#8DCB87"/>
			<stop  offset="0.8947" style="stop-color:#44B755"/>
			<stop  offset="1" style="stop-color:#13B24B"/>
		</radialGradient>
		<path fill="url(#SVGID_6_)" d="M22.397,0c0-8.284-6.716-15-15-15s-15,6.716-15,15s6.716,15,15,15S22.397,8.284,22.397,0z"/>
	</symbol>
</defs>
<filter  filterUnits="objectBoundingBox" id="AI_Shadow_1">
	<feGaussianBlur  in="SourceAlpha" result="blur" stdDeviation="2"></feGaussianBlur>
	<feOffset  dx="4" dy="4" in="blur" result="offsetBlurredAlpha"></feOffset>
	<feMerge>
		<feMergeNode  in="offsetBlurredAlpha"></feMergeNode>
		<feMergeNode  in="SourceGraphic"></feMergeNode>
	</feMerge>
</filter>
<path fill="#EAF7FB" stroke="#3D7CC0" stroke-width="4" d="M219,196.392v136c0,10.493-8.507,19-19,19H21c-10.493,0-19-8.507-19-19
	v-136"/>
<use xlink:href="#laser"  width="429" height="22.479" x="-214.5" y="-11.239" transform="matrix(-0.2284 -0.1996 -0.2522 0.2886 194.5493 292.5942)" overflow="visible" opacity="0.63"/>
<path fill="#EAF7FB" stroke="#3D7CC0" stroke-width="4" d="M219,1.392v136c0,10.493-8.507,19-19,19H21c-10.493,0-19-8.507-19-19
	v-136"/>
<use xlink:href="#laser"  width="429" height="22.479" x="-214.5" y="-11.239" transform="matrix(-0.2757 -0.2258 -0.2428 0.2965 181.4785 95.4458)" overflow="visible" opacity="0.63"/>
<g opacity="0.5" filter="url(#AI_Shadow_1)">
	<polygon points="527.5,198.555 526.167,198.555 526.167,68.726 271,68.726 271,66.722 268,66.722 268,82.617 262.828,82.617 
		262.828,85.617 268,85.617 268,121.263 262.828,121.263 262.828,124.263 268,124.263 268,159.91 262.828,159.91 262.828,162.91 
		268,162.91 268,198.555 262.828,198.555 262.828,201.555 268,201.555 268.78,201.555 268.78,205.114 269.574,205.114 
		269.574,201.555 276.955,201.555 276.955,205.114 277.749,205.114 277.749,201.555 285.128,201.555 285.128,205.114 
		285.922,205.114 285.922,201.555 293.303,201.555 293.303,205.114 294.097,205.114 294.097,201.555 301.478,201.555 
		301.478,205.114 302.272,205.114 302.272,201.555 309.652,201.555 309.652,205.114 310.446,205.114 310.446,201.555 
		317.827,201.555 317.827,205.114 318.621,205.114 318.621,201.555 326.001,201.555 326.001,205.114 326.795,205.114 
		326.795,201.555 334.175,201.555 334.175,205.114 334.969,205.114 334.969,201.555 342.35,201.555 342.35,205.114 343.144,205.114 
		343.144,201.555 350.525,201.555 350.525,205.114 351.319,205.114 351.319,201.555 358.699,201.555 358.699,205.114 
		359.493,205.114 359.493,201.555 366.874,201.555 366.874,205.114 367.667,205.114 367.667,201.555 375.049,201.555 
		375.049,205.114 375.842,205.114 375.842,201.555 383.223,201.555 383.223,205.114 384.016,205.114 384.016,201.555 
		391.396,201.555 391.396,205.114 392.191,205.114 392.191,201.555 399.572,201.555 399.572,205.114 400.365,205.114 
		400.365,201.555 407.746,201.555 407.746,205.114 408.539,205.114 408.539,201.555 415.921,201.555 415.921,205.114 
		416.714,205.114 416.714,201.555 424.096,201.555 424.096,205.114 424.889,205.114 424.889,201.555 432.271,201.555 
		432.271,205.114 433.063,205.114 433.063,201.555 440.444,201.555 440.444,205.114 441.237,205.114 441.237,201.555 
		448.619,201.555 448.619,205.114 449.412,205.114 449.412,201.555 456.794,201.555 456.794,205.114 457.587,205.114 
		457.587,201.555 464.968,201.555 464.968,205.114 465.761,205.114 465.761,201.555 473.143,201.555 473.143,205.114 
		473.936,205.114 473.936,201.555 481.317,201.555 481.317,205.114 482.11,205.114 482.11,201.555 489.491,201.555 489.491,205.114 
		490.284,205.114 490.284,201.555 497.666,201.555 497.666,205.114 498.459,205.114 498.459,201.555 505.841,201.555 
		505.841,205.114 506.634,205.114 506.634,201.555 514.015,201.555 514.015,205.114 514.808,205.114 514.808,201.555 
		522.189,201.555 522.189,205.114 522.982,205.114 522.982,201.555 527.5,201.555 	"/>
</g>
<g opacity="0.5" filter="url(#AI_Shadow_1)">
	<polygon points="527.5,402.555 526.167,402.555 526.167,272.726 271,272.726 271,270.722 268,270.722 268,286.617 262.828,286.617 
		262.828,289.617 268,289.617 268,325.263 262.828,325.263 262.828,328.263 268,328.263 268,363.91 262.828,363.91 262.828,366.91 
		268,366.91 268,402.555 262.828,402.555 262.828,405.555 268,405.555 268.78,405.555 268.78,409.114 269.574,409.114 
		269.574,405.555 276.955,405.555 276.955,409.114 277.749,409.114 277.749,405.555 285.128,405.555 285.128,409.114 
		285.922,409.114 285.922,405.555 293.303,405.555 293.303,409.114 294.097,409.114 294.097,405.555 301.478,405.555 
		301.478,409.114 302.272,409.114 302.272,405.555 309.652,405.555 309.652,409.114 310.446,409.114 310.446,405.555 
		317.827,405.555 317.827,409.114 318.621,409.114 318.621,405.555 326.001,405.555 326.001,409.114 326.795,409.114 
		326.795,405.555 334.175,405.555 334.175,409.114 334.969,409.114 334.969,405.555 342.35,405.555 342.35,409.114 343.144,409.114 
		343.144,405.555 350.525,405.555 350.525,409.114 351.319,409.114 351.319,405.555 358.699,405.555 358.699,409.114 
		359.493,409.114 359.493,405.555 366.874,405.555 366.874,409.114 367.667,409.114 367.667,405.555 375.049,405.555 
		375.049,409.114 375.842,409.114 375.842,405.555 383.223,405.555 383.223,409.114 384.016,409.114 384.016,405.555 
		391.396,405.555 391.396,409.114 392.191,409.114 392.191,405.555 399.572,405.555 399.572,409.114 400.365,409.114 
		400.365,405.555 407.746,405.555 407.746,409.114 408.539,409.114 408.539,405.555 415.921,405.555 415.921,409.114 
		416.714,409.114 416.714,405.555 424.096,405.555 424.096,409.114 424.889,409.114 424.889,405.555 432.271,405.555 
		432.271,409.114 433.063,409.114 433.063,405.555 440.444,405.555 440.444,409.114 441.237,409.114 441.237,405.555 
		448.619,405.555 448.619,409.114 449.412,409.114 449.412,405.555 456.794,405.555 456.794,409.114 457.587,409.114 
		457.587,405.555 464.968,405.555 464.968,409.114 465.761,409.114 465.761,405.555 473.143,405.555 473.143,409.114 
		473.936,409.114 473.936,405.555 481.317,405.555 481.317,409.114 482.11,409.114 482.11,405.555 489.491,405.555 489.491,409.114 
		490.284,409.114 490.284,405.555 497.666,405.555 497.666,409.114 498.459,409.114 498.459,405.555 505.841,405.555 
		505.841,409.114 506.634,409.114 506.634,405.555 514.015,405.555 514.015,409.114 514.808,409.114 514.808,405.555 
		522.189,405.555 522.189,409.114 522.982,409.114 522.982,405.555 527.5,405.555 	"/>
</g>
<linearGradient id="SVGID_7_" gradientUnits="userSpaceOnUse" x1="398" y1="284.3921" x2="398" y2="409.3921">
	<stop  offset="0" style="stop-color:#FFFFFF"/>
	<stop  offset="1" style="stop-color:#D8D9DA"/>
</linearGradient>
<rect x="269.666" y="272.726" fill="url(#SVGID_7_)" width="256.667" height="131.33"/>
<linearGradient id="SVGID_8_" gradientUnits="userSpaceOnUse" x1="398" y1="80.3921" x2="398" y2="202.5927">
	<stop  offset="0" style="stop-color:#FFFFFF"/>
	<stop  offset="1" style="stop-color:#D8D9DA"/>
</linearGradient>
<rect x="269.666" y="68.726" fill="url(#SVGID_8_)" width="256.667" height="131.33"/>
<use xlink:href="#New_Symbolwater"  width="20.4" height="11.82" x="-10.2" y="-5.91" transform="matrix(-0.1775 0.9841 0.9841 0.1775 146.665 36.0098)" overflow="visible"/>
<use xlink:href="#New_Symbolwater"  width="20.4" height="11.82" x="-10.2" y="-5.91" transform="matrix(0.8934 0.4493 0.4493 -0.8934 126.1895 70.4639)" overflow="visible"/>
<use xlink:href="#New_Symbolwater"  width="20.4" height="11.82" x="-10.2" y="-5.91" transform="matrix(-0.9841 -0.1774 -0.1774 0.9841 144.729 57.4297)" overflow="visible"/>
<use xlink:href="#New_Symbolwater"  width="20.4" height="11.82" x="-10.2" y="-5.91" transform="matrix(-0.2867 0.958 0.958 0.2867 161.1309 68.5737)" overflow="visible"/>
<use xlink:href="#New_Symbolwater"  width="20.4" height="11.82" x="-10.2" y="-5.91" transform="matrix(0.9999 0.0103 0.0103 -0.9999 131.4746 89.3955)" overflow="visible"/>
<use xlink:href="#New_Symbolwater"  width="20.4" height="11.82" x="-10.2" y="-5.91" transform="matrix(0.9697 0.2441 0.2441 -0.9697 89.4419 105.2319)" overflow="visible"/>
<use xlink:href="#New_Symbolwater"  width="20.4" height="11.82" x="-10.2" y="-5.91" transform="matrix(0.3762 0.9265 0.9265 -0.3762 72.9058 83.3945)" overflow="visible"/>
<use xlink:href="#New_Symbolwater"  width="20.4" height="11.82" x="-10.2" y="-5.91" transform="matrix(0.997 -0.0775 -0.0775 -0.997 177.231 124.8906)" overflow="visible"/>
<use xlink:href="#New_Symbolwater"  width="20.4" height="11.82" x="-10.2" y="-5.91" transform="matrix(-0.1775 0.9841 0.9841 0.1775 79.999 53.9941)" overflow="visible"/>
<use xlink:href="#New_Symbolwater"  width="20.4" height="11.82" x="-10.2" y="-5.91" transform="matrix(0.5978 0.8017 0.8017 -0.5978 129.4585 49.4888)" overflow="visible"/>
<use xlink:href="#New_Symbolwater"  width="20.4" height="11.82" x="-10.2" y="-5.91" transform="matrix(0.9756 0.2195 0.2195 -0.9756 103.5005 69.9146)" overflow="visible"/>
<use xlink:href="#New_Symbolwater"  width="20.4" height="11.82" x="-10.2" y="-5.91" transform="matrix(0.7149 0.6993 0.6993 -0.7149 45.4746 93.1245)" overflow="visible"/>
<use xlink:href="#New_Symbolwater"  width="20.4" height="11.82" x="-10.2" y="-5.91" transform="matrix(-0.8795 0.4758 0.4758 0.8795 25.417 68.9907)" overflow="visible"/>
<use xlink:href="#New_Symbolwater"  width="20.4" height="11.82" x="-10.2" y="-5.91" transform="matrix(1 0 0 -1 151.4551 101.2583)" overflow="visible"/>
<use xlink:href="#New_Symbolwater"  width="20.4" height="11.82" x="-10.2" y="-5.91" transform="matrix(1 0 0 -1 180.3237 79.7046)" overflow="visible"/>
<use xlink:href="#New_Symbolwater"  width="20.4" height="11.82" x="-10.2" y="-5.91" transform="matrix(-0.9367 -0.3501 -0.3501 0.9367 166.0132 92.4546)" overflow="visible"/>
<use xlink:href="#New_Symbolwater"  width="20.4" height="11.82" x="-10.2" y="-5.91" transform="matrix(1 0 0 -1 175.5347 142.2236)" overflow="visible"/>
<use xlink:href="#New_Symbolwater"  width="20.4" height="11.82" x="-10.2" y="-5.91" transform="matrix(-0.5948 0.8039 0.8039 0.5948 132.3135 139.1758)" overflow="visible"/>
<use xlink:href="#New_Symbolwater"  width="20.4" height="11.82" x="-10.2" y="-5.91" transform="matrix(-0.3274 0.9449 0.9449 0.3274 112.3823 99.1528)" overflow="visible"/>
<use xlink:href="#New_Symbolwater"  width="20.4" height="11.82" x="-10.2" y="-5.91" transform="matrix(-0.7007 -0.7135 -0.7135 0.7007 132.0439 122.9902)" overflow="visible"/>
<use xlink:href="#New_Symbolwater"  width="20.4" height="11.82" x="-10.2" y="-5.91" transform="matrix(0.4001 -0.9165 -0.9165 -0.4001 136.1069 14.1948)" overflow="visible"/>
<use xlink:href="#New_Symbolwater"  width="20.4" height="11.82" x="-10.2" y="-5.91" transform="matrix(0.901 0.4337 0.4337 -0.901 181.9155 28.8433)" overflow="visible"/>
<use xlink:href="#New_Symbolwater"  width="20.4" height="11.82" x="-10.2" y="-5.91" transform="matrix(0.99 0.1412 0.1412 -0.99 184.3896 44.4019)" overflow="visible"/>
<use xlink:href="#New_Symbolwater"  width="20.4" height="11.82" x="-10.2" y="-5.91" transform="matrix(0.9996 0.0293 0.0293 -0.9996 20.1899 128.6025)" overflow="visible"/>
<use xlink:href="#New_Symbolwater"  width="20.4" height="11.82" x="-10.2" y="-5.91" transform="matrix(0.9748 -0.2231 -0.2231 -0.9748 53.1704 21.2769)" overflow="visible"/>
<use xlink:href="#New_Symbolwater"  width="20.4" height="11.82" x="-10.2" y="-5.91" transform="matrix(0.9955 -0.0952 -0.0952 -0.9955 70.3071 6.5972)" overflow="visible"/>
<use xlink:href="#New_Symbolwater"  width="20.4" height="11.82" x="-10.2" y="-5.91" transform="matrix(0.9919 -0.1268 -0.1268 -0.9919 16.1807 42.9292)" overflow="visible"/>
<use xlink:href="#New_Symbolwater"  width="20.4" height="11.82" x="-10.2" y="-5.91" transform="matrix(0.962 -0.2729 -0.2729 -0.962 81.4893 37.2017)" overflow="visible"/>
<use xlink:href="#New_Symbolwater"  width="20.4" height="11.82" x="-10.2" y="-5.91" transform="matrix(0.9933 -0.1157 -0.1157 -0.9933 198.1826 100.1934)" overflow="visible"/>
<use xlink:href="#New_Symbolwater"  width="20.4" height="11.82" x="-10.2" y="-5.91" transform="matrix(-0.3377 0.9413 0.9413 0.3377 29.2847 19.231)" overflow="visible"/>
<use xlink:href="#New_Symbolwater"  width="20.4" height="11.82" x="-10.2" y="-5.91" transform="matrix(0.981 0.1942 0.1942 -0.981 47.292 124.895)" overflow="visible"/>
<use xlink:href="#New_Symbolwater"  width="20.4" height="11.82" x="-10.2" y="-5.91" transform="matrix(-0.0411 -0.9992 -0.9992 0.0411 58.6802 110.9409)" overflow="visible"/>
<use xlink:href="#New_Symbolwater"  width="20.4" height="11.82" x="-10.2" y="-5.91" transform="matrix(0.9884 0.1519 0.1519 -0.9884 79.5361 123.2085)" overflow="visible"/>
<use xlink:href="#New_Symbolwater"  width="20.4" height="11.82" x="-10.2" y="-5.91" transform="matrix(1 0.0028 0.0028 -1 71.1899 133.4927)" overflow="visible"/>
<use xlink:href="#New_Symbolwater"  width="20.4" height="11.82" x="-10.2" y="-5.91" transform="matrix(-0.1363 0.9907 0.9907 0.1363 40.2451 141.0684)" overflow="visible"/>
<use xlink:href="#New_Symbolwater"  width="20.4" height="11.82" x="-10.2" y="-5.91" transform="matrix(-0.4504 0.8928 0.8928 0.4504 9.9692 99.8403)" overflow="visible"/>
<use xlink:href="#particle"  width="78.832" height="30" x="-39.416" y="-15" transform="matrix(-0.7471 -0.6647 -0.6647 0.7471 97.8081 122.1382)" overflow="visible"/>
<use xlink:href="#particle"  width="78.832" height="30" x="-39.416" y="-15" transform="matrix(0.4894 -0.8721 -0.8721 -0.4894 47.3335 61.7251)" overflow="visible"/>
<use xlink:href="#New_Symbolwater"  width="20.4" height="11.82" x="-10.2" y="-5.91" transform="matrix(0.7412 -0.6713 -0.6713 -0.7412 129.876 271.189)" overflow="visible"/>
<use xlink:href="#New_Symbolwater"  width="20.4" height="11.82" x="-10.2" y="-5.91" transform="matrix(-0.9932 -0.1164 -0.1164 0.9932 170.3242 245.6162)" overflow="visible"/>
<use xlink:href="#New_Symbolwater"  width="20.4" height="11.82" x="-10.2" y="-5.91" transform="matrix(-0.9898 -0.1422 -0.1422 0.9898 181.333 259.2017)" overflow="visible"/>
<use xlink:href="#New_Symbolwater"  width="20.4" height="11.82" x="-10.2" y="-5.91" transform="matrix(-0.928 0.3725 0.3725 0.928 134.0713 287.563)" overflow="visible"/>
<use xlink:href="#New_Symbolwater"  width="20.4" height="11.82" x="-10.2" y="-5.91" transform="matrix(0.3691 0.9294 0.9294 -0.3691 100.9507 298.9819)" overflow="visible"/>
<use xlink:href="#New_Symbolwater"  width="20.4" height="11.82" x="-10.2" y="-5.91" transform="matrix(-0.1775 -0.9841 -0.9841 0.1775 76.8477 280.3628)" overflow="visible"/>
<use xlink:href="#New_Symbolwater"  width="20.4" height="11.82" x="-10.2" y="-5.91" transform="matrix(0.6537 0.7568 0.7568 -0.6537 57.3828 262.0303)" overflow="visible"/>
<use xlink:href="#New_Symbolwater"  width="20.4" height="11.82" x="-10.2" y="-5.91" transform="matrix(-0.4544 0.8908 0.8908 0.4544 80.6016 257.4136)" overflow="visible"/>
<use xlink:href="#New_Symbolwater"  width="20.4" height="11.82" x="-10.2" y="-5.91" transform="matrix(0.765 0.644 0.644 -0.765 104.4209 265.1631)" overflow="visible"/>
<use xlink:href="#New_Symbolwater"  width="20.4" height="11.82" x="-10.2" y="-5.91" transform="matrix(-0.9327 0.3606 0.3606 0.9327 46.8813 287.4224)" overflow="visible"/>
<use xlink:href="#New_Symbolwater"  width="20.4" height="11.82" x="-10.2" y="-5.91" transform="matrix(-0.91 0.4147 0.4147 0.91 31.1592 254.8301)" overflow="visible"/>
<use xlink:href="#New_Symbolwater"  width="20.4" height="11.82" x="-10.2" y="-5.91" transform="matrix(-0.2834 0.959 0.959 0.2834 153.521 297.0571)" overflow="visible"/>
<use xlink:href="#New_Symbolwater"  width="20.4" height="11.82" x="-10.2" y="-5.91" transform="matrix(0.9964 -0.0846 -0.0846 -0.9964 183.5571 274.2603)" overflow="visible"/>
<use xlink:href="#New_Symbolwater"  width="20.4" height="11.82" x="-10.2" y="-5.91" transform="matrix(-0.9863 0.165 0.165 0.9863 167.8032 287.4546)" overflow="visible"/>
<use xlink:href="#New_Symbolwater"  width="20.4" height="11.82" x="-10.2" y="-5.91" transform="matrix(0.8364 -0.5482 -0.5482 -0.8364 177.9102 329.6597)" overflow="visible"/>
<use xlink:href="#New_Symbolwater"  width="20.4" height="11.82" x="-10.2" y="-5.91" transform="matrix(-0.4091 -0.9125 -0.9125 0.4091 132.3389 334.1792)" overflow="visible"/>
<use xlink:href="#New_Symbolwater"  width="20.4" height="11.82" x="-10.2" y="-5.91" transform="matrix(-0.4251 0.9051 0.9051 0.4251 119.9312 294.3218)" overflow="visible"/>
<use xlink:href="#New_Symbolwater"  width="20.4" height="11.82" x="-10.2" y="-5.91" transform="matrix(-0.7676 -0.6409 -0.6409 0.7676 161.0063 227.7119)" overflow="visible"/>
<use xlink:href="#New_Symbolwater"  width="20.4" height="11.82" x="-10.2" y="-5.91" transform="matrix(0.4637 -0.886 -0.886 -0.4637 166.5664 213.104)" overflow="visible"/>
<use xlink:href="#New_Symbolwater"  width="20.4" height="11.82" x="-10.2" y="-5.91" transform="matrix(0.7824 0.6228 0.6228 -0.7824 183.8555 222.3828)" overflow="visible"/>
<use xlink:href="#New_Symbolwater"  width="20.4" height="11.82" x="-10.2" y="-5.91" transform="matrix(0.688 0.7257 0.7257 -0.688 105.0581 332.9565)" overflow="visible"/>
<use xlink:href="#New_Symbolwater"  width="20.4" height="11.82" x="-10.2" y="-5.91" transform="matrix(0.4717 0.8817 0.8817 -0.4717 205.2324 332.8042)" overflow="visible"/>
<use xlink:href="#New_Symbolwater"  width="20.4" height="11.82" x="-10.2" y="-5.91" transform="matrix(-0.1455 0.9894 0.9894 0.1455 142.4448 229.6157)" overflow="visible"/>
<use xlink:href="#New_Symbolwater"  width="20.4" height="11.82" x="-10.2" y="-5.91" transform="matrix(0.5581 0.8298 0.8298 -0.5581 124.418 211.6372)" overflow="visible"/>
<use xlink:href="#New_Symbolwater"  width="20.4" height="11.82" x="-10.2" y="-5.91" transform="matrix(0.6623 0.7492 0.7492 -0.6623 155.3125 335.7407)" overflow="visible"/>
<use xlink:href="#New_Symbolwater"  width="20.4" height="11.82" x="-10.2" y="-5.91" transform="matrix(0.1232 0.9924 0.9924 -0.1232 86.8667 214.9233)" overflow="visible"/>
<use xlink:href="#New_Symbolwater"  width="20.4" height="11.82" x="-10.2" y="-5.91" transform="matrix(-0.5401 -0.8416 -0.8416 0.5401 85.5464 234.3389)" overflow="visible"/>
<use xlink:href="#New_Symbolwater"  width="20.4" height="11.82" x="-10.2" y="-5.91" transform="matrix(-0.5017 -0.8651 -0.8651 0.5017 46.9189 236.665)" overflow="visible"/>
<use xlink:href="#New_Symbolwater"  width="20.4" height="11.82" x="-10.2" y="-5.91" transform="matrix(-0.9994 0.0351 0.0351 0.9994 29.2847 214.231)" overflow="visible"/>
<use xlink:href="#New_Symbolwater"  width="20.4" height="11.82" x="-10.2" y="-5.91" transform="matrix(0.7634 -0.6459 -0.6459 -0.7634 58.4971 319.686)" overflow="visible"/>
<use xlink:href="#New_Symbolwater"  width="20.4" height="11.82" x="-10.2" y="-5.91" transform="matrix(0.1614 -0.9869 -0.9869 -0.1614 63.1436 309.813)" overflow="visible"/>
<use xlink:href="#New_Symbolwater"  width="20.4" height="11.82" x="-10.2" y="-5.91" transform="matrix(0.9919 -0.1274 -0.1274 -0.9919 83.0205 320.3071)" overflow="visible"/>
<use xlink:href="#New_Symbolwater"  width="20.4" height="11.82" x="-10.2" y="-5.91" transform="matrix(0.532 -0.8468 -0.8468 -0.532 70.8555 330.4839)" overflow="visible"/>
<use xlink:href="#New_Symbolwater"  width="20.4" height="11.82" x="-10.2" y="-5.91" transform="matrix(-0.9482 0.3178 0.3178 0.9482 46.1509 335.3452)" overflow="visible"/>
<use xlink:href="#New_Symbolwater"  width="20.4" height="11.82" x="-10.2" y="-5.91" transform="matrix(0.9764 -0.2162 -0.2162 -0.9764 10.772 294.8403)" overflow="visible"/>
<use xlink:href="#particle"  width="78.832" height="30" x="-39.416" y="-15" transform="matrix(-0.536 -0.4769 -0.4769 0.536 126.2593 306.9009)" overflow="visible"/>
<use xlink:href="#particle"  width="78.832" height="30" x="-39.416" y="-15" transform="matrix(0.3511 -0.6257 -0.6257 -0.3511 169.3975 312.2144)" overflow="visible"/>
<use xlink:href="#particle"  width="78.832" height="30" x="-39.416" y="-15" transform="matrix(-0.0252 0.7171 0.7171 0.0252 28.665 276.103)" overflow="visible"/>
<use xlink:href="#particle"  width="78.832" height="30" x="-39.416" y="-15" transform="matrix(-0.536 -0.4769 -0.4769 0.536 69.1943 296.5571)" overflow="visible"/>
<use xlink:href="#particle"  width="78.832" height="30" x="-39.416" y="-15" transform="matrix(-0.5088 -0.5059 -0.5059 0.5088 67.3462 219.2378)" overflow="visible"/>
<use xlink:href="#New_Symbolwater"  width="20.4" height="11.82" x="-10.2" y="-5.91" transform="matrix(-0.421 0.9071 0.9071 0.421 110.5835 237.8936)" overflow="visible"/>
<linearGradient id="SVGID_9_" gradientUnits="userSpaceOnUse" x1="171.0679" y1="90.9746" x2="87.0699" y2="17.6429">
	<stop  offset="0" style="stop-color:#EF3835;stop-opacity:0"/>
	<stop  offset="1" style="stop-color:#EE2726"/>
</linearGradient>
<polygon opacity="0.17" fill="url(#SVGID_9_)" points="116.334,42.394 161.479,51.621 206.623,60.849 176.059,95.332 
	145.495,129.813 130.915,86.104 "/>
<linearGradient id="SVGID_10_" gradientUnits="userSpaceOnUse" x1="194.3994" y1="293.312" x2="113.7324" y2="221.979">
	<stop  offset="0" style="stop-color:#EF3835;stop-opacity:0"/>
	<stop  offset="1" style="stop-color:#EE2726"/>
</linearGradient>
<polygon opacity="0.17" fill="url(#SVGID_10_)" points="142.25,247.073 187.394,256.301 232.539,265.529 201.975,300.012 
	171.411,334.494 156.831,290.782 "/>
<use xlink:href="#laser"  width="429" height="22.479" x="-214.5" y="-11.239" transform="matrix(1 0 0 -1 327 41.8921)" overflow="visible"/>
<use xlink:href="#laser"  width="429" height="22.479" x="-214.5" y="-11.239" transform="matrix(0.9394 0 0 -1 340 245.3921)" overflow="visible"/>
<polygon points="527.666,201.555 268.166,201.555 268.166,66.722 271.166,66.722 271.166,198.555 527.666,198.555 527.666,201.555 
	"/>
<polygon points="269.666,201.555 262.994,201.555 262.994,198.555 269.666,198.555 269.666,201.555 "/>
<polygon points="269.666,162.909 262.994,162.909 262.994,159.909 269.666,159.909 269.666,162.909 "/>
<polygon points="269.666,124.263 262.994,124.263 262.994,121.263 269.666,121.263 269.666,124.263 "/>
<polygon points="269.666,85.617 262.994,85.617 262.994,82.617 269.666,82.617 269.666,85.617 "/>
<polygon points="269.74,205.114 268.946,205.114 268.946,200.421 269.74,200.421 269.74,205.114 "/>
<polygon points="277.915,205.114 277.121,205.114 277.121,200.421 277.915,200.421 277.915,205.114 "/>
<polygon points="286.088,205.114 285.294,205.114 285.294,200.421 286.088,200.421 286.088,205.114 "/>
<polygon points="302.438,205.114 301.644,205.114 301.644,200.421 302.438,200.421 302.438,205.114 "/>
<polygon points="294.263,205.114 293.469,205.114 293.469,200.421 294.263,200.421 294.263,205.114 "/>
<polygon points="310.612,205.114 309.818,205.114 309.818,200.421 310.612,200.421 310.612,205.114 "/>
<polygon points="318.787,205.114 317.993,205.114 317.993,200.421 318.787,200.421 318.787,205.114 "/>
<polygon points="326.961,205.114 326.167,205.114 326.167,200.421 326.961,200.421 326.961,205.114 "/>
<polygon points="335.135,205.114 334.341,205.114 334.341,200.421 335.135,200.421 335.135,205.114 "/>
<polygon points="343.31,205.114 342.516,205.114 342.516,200.421 343.31,200.421 343.31,205.114 "/>
<polygon points="351.485,205.114 350.691,205.114 350.691,200.421 351.485,200.421 351.485,205.114 "/>
<polygon points="367.833,205.114 367.04,205.114 367.04,200.421 367.833,200.421 367.833,205.114 "/>
<polygon points="359.659,205.114 358.865,205.114 358.865,200.421 359.659,200.421 359.659,205.114 "/>
<polygon points="376.008,205.114 375.214,205.114 375.214,200.421 376.008,200.421 376.008,205.114 "/>
<polygon points="384.182,205.114 383.388,205.114 383.388,200.421 384.182,200.421 384.182,205.114 "/>
<polygon points="392.357,205.114 391.563,205.114 391.563,200.421 392.357,200.421 392.357,205.114 "/>
<polygon points="400.531,205.114 399.738,205.114 399.738,200.421 400.531,200.421 400.531,205.114 "/>
<polygon points="408.705,205.114 407.912,205.114 407.912,200.421 408.705,200.421 408.705,205.114 "/>
<polygon points="416.88,205.114 416.087,205.114 416.087,200.421 416.88,200.421 416.88,205.114 "/>
<polygon points="433.229,205.114 432.437,205.114 432.437,200.421 433.229,200.421 433.229,205.114 "/>
<polygon points="425.055,205.114 424.262,205.114 424.262,200.421 425.055,200.421 425.055,205.114 "/>
<polygon points="441.403,205.114 440.61,205.114 440.61,200.421 441.403,200.421 441.403,205.114 "/>
<polygon points="449.578,205.114 448.785,205.114 448.785,200.421 449.578,200.421 449.578,205.114 "/>
<polygon points="457.753,205.114 456.96,205.114 456.96,200.421 457.753,200.421 457.753,205.114 "/>
<polygon points="465.927,205.114 465.134,205.114 465.134,200.421 465.927,200.421 465.927,205.114 "/>
<polygon points="474.102,205.114 473.309,205.114 473.309,200.421 474.102,200.421 474.102,205.114 "/>
<polygon points="482.276,205.114 481.483,205.114 481.483,200.421 482.276,200.421 482.276,205.114 "/>
<polygon points="498.625,205.114 497.832,205.114 497.832,200.421 498.625,200.421 498.625,205.114 "/>
<polygon points="490.45,205.114 489.657,205.114 489.657,200.421 490.45,200.421 490.45,205.114 "/>
<polygon points="506.8,205.114 506.007,205.114 506.007,200.421 506.8,200.421 506.8,205.114 "/>
<polygon points="514.974,205.114 514.181,205.114 514.181,200.421 514.974,200.421 514.974,205.114 "/>
<polygon points="523.148,205.114 522.355,205.114 522.355,200.421 523.148,200.421 523.148,205.114 "/>
<path d="M388.9,212.884h-2.577v-1.812h7.335v1.812h-2.606v7.731H388.9V212.884z"/>
<path d="M396.629,211.766c0,0.595-0.439,1.076-1.161,1.076c-0.68,0-1.118-0.481-1.118-1.076c0-0.609,0.453-1.076,1.146-1.076
	S396.615,211.157,396.629,211.766z M394.406,220.616v-6.924h2.152v6.924H394.406z"/>
<path d="M398.285,215.9c0-0.864-0.029-1.586-0.057-2.209h1.826l0.085,0.935h0.042c0.298-0.453,0.921-1.104,2.096-1.104
	c0.906,0,1.601,0.467,1.898,1.189h0.027c0.27-0.368,0.566-0.651,0.906-0.85c0.383-0.212,0.808-0.34,1.317-0.34
	c1.331,0,2.337,0.935,2.337,3.016v4.078h-2.096v-3.767c0-1.005-0.326-1.586-1.02-1.586c-0.51,0-0.85,0.34-1.006,0.75
	c-0.043,0.156-0.07,0.368-0.07,0.552v4.05h-2.096v-3.894c0-0.864-0.312-1.458-1.006-1.458c-0.553,0-0.878,0.425-1.006,0.765
	c-0.07,0.17-0.084,0.368-0.084,0.552v4.036h-2.096V215.9z"/>
<path d="M412.115,217.84c0.057,0.892,0.949,1.317,1.954,1.317c0.736,0,1.331-0.099,1.911-0.297l0.283,1.458
	c-0.707,0.297-1.571,0.439-2.506,0.439c-2.351,0-3.695-1.359-3.695-3.526c0-1.756,1.09-3.696,3.497-3.696
	c2.237,0,3.087,1.742,3.087,3.455c0,0.368-0.043,0.694-0.07,0.85H412.115z M414.65,216.368c0-0.524-0.227-1.402-1.219-1.402
	c-0.906,0-1.273,0.835-1.33,1.402H414.65z"/>
<path fill="#ED1F24" d="M462.143,171.142c-6.062,0-13.097-8.744-14.454-11.188c-6.153-12.559-8.847-26.186-11.451-39.364
	c-0.846-4.28-1.721-8.705-2.7-13.033c-1.024-4.711-1.047-9.358-1.066-13.458c-0.021-4.525-0.041-8.799-1.716-9.82
	c-0.951-0.582-3.302-0.656-9.074,2.284c-7.817,4.125-9.167,11.507-10.729,20.055c-0.65,3.557-1.323,7.234-2.532,10.761
	c-1.584,4.75-4.821,9.444-7.951,13.984c-2.36,3.422-4.589,6.654-6.114,9.844c-1.646,3.29-11.619,8.798-14.922,9.79
	c-2.565,0.7-5.925-0.579-9.175-1.814c-1.937-0.736-4.135-1.575-5.091-1.465c-2.929,0.267-10.458,6.244-12.995,9.116
	c-3.905,5.316-8.029,9.98-15.393,8.876c-7.938-1.134-9.293-7.396-10.604-13.453c-0.837-3.865-1.702-7.862-4.281-10.686
	c-4.515-4.681-5.552-10.281-6.556-15.696c-1.05-5.665-2.042-11.017-7.16-14.727c-2.881-1.694-9.175-2.592-12.227-0.094
	c-0.84,0.654-2.547,1.83-4.708,3.319c-4.979,3.43-15.338,10.566-16.4,12.691c-0.371,0.74-1.272,1.04-2.013,0.671
	c-0.741-0.371-1.041-1.271-0.671-2.013c1.301-2.604,8.642-7.799,17.381-13.82c2.038-1.404,3.797-2.616,4.54-3.193
	c4.312-3.528,12.021-2.305,15.693-0.102l0.104,0.068c6.143,4.415,7.296,10.637,8.411,16.653c0.965,5.209,1.877,10.129,5.793,14.191
	c3.152,3.451,4.147,8.048,5.025,12.104c1.38,6.373,2.51,10.319,8.107,11.119c5.766,0.863,8.976-2.824,12.579-7.736l0.081-0.1
	c1.949-2.229,10.435-9.759,14.993-10.173c1.648-0.187,3.878,0.664,6.458,1.645c2.539,0.965,5.696,2.17,7.283,1.735
	c3.506-1.053,12.059-6.236,13.053-8.224c1.616-3.38,4.017-6.862,6.339-10.229c3.012-4.368,6.126-8.883,7.579-13.242
	c1.141-3.327,1.792-6.892,2.423-10.34c1.561-8.536,3.175-17.362,12.3-22.179c5.883-2.995,9.583-3.667,12.018-2.182
	c3.104,1.893,3.126,6.515,3.153,12.368c0.02,3.952,0.04,8.431,0.995,12.822c0.986,4.355,1.865,8.801,2.715,13.101
	c2.685,13.587,5.222,26.42,11.166,38.558c1.705,3.064,8.53,10.291,12.359,9.522c1.929-0.386,3.76-2.36,5.697-4.45
	c2.408-2.598,4.898-5.283,8.336-5.89c2.585-0.518,4.528-0.166,6.087,0.116c2.562,0.464,3.846,0.694,6.968-3.53
	c3.434-4.578,4.453-10.167,5.533-16.084c1.307-7.164,2.658-14.571,8.688-19.822c1.23-1.041,2.936-2.85,4.909-4.945
	c6.307-6.694,11.451-11.835,15.482-12.087c0.846-0.047,1.539,0.577,1.591,1.403c0.052,0.827-0.577,1.539-1.403,1.591
	c-3.169,0.198-9.378,6.789-13.486,11.15c-2.036,2.161-3.795,4.028-5.139,5.165c-5.221,4.547-6.42,11.123-7.69,18.084
	c-1.095,5.999-2.227,12.202-6.078,17.337c-3.932,5.32-6.476,5.312-9.908,4.691c-1.444-0.261-2.94-0.53-4.998-0.12
	c-2.479,0.438-4.62,2.748-6.69,4.981c-2.178,2.348-4.429,4.776-7.31,5.352C462.916,171.105,462.531,171.142,462.143,171.142
	L462.143,171.142z"/>
<polygon points="269.666,405.555 262.994,405.555 262.994,402.555 269.666,402.555 269.666,405.555 "/>
<polygon points="269.74,409.114 268.946,409.114 268.946,404.421 269.74,404.421 269.74,409.114 "/>
<polygon points="277.915,409.114 277.121,409.114 277.121,404.421 277.915,404.421 277.915,409.114 "/>
<polygon points="286.088,409.114 285.294,409.114 285.294,404.421 286.088,404.421 286.088,409.114 "/>
<polygon points="302.438,409.114 301.644,409.114 301.644,404.421 302.438,404.421 302.438,409.114 "/>
<polygon points="294.263,409.114 293.469,409.114 293.469,404.421 294.263,404.421 294.263,409.114 "/>
<polygon points="310.612,409.114 309.818,409.114 309.818,404.421 310.612,404.421 310.612,409.114 "/>
<polygon points="318.787,409.114 317.993,409.114 317.993,404.421 318.787,404.421 318.787,409.114 "/>
<polygon points="326.961,409.114 326.167,409.114 326.167,404.421 326.961,404.421 326.961,409.114 "/>
<polygon points="335.135,409.114 334.341,409.114 334.341,404.421 335.135,404.421 335.135,409.114 "/>
<polygon points="343.31,409.114 342.516,409.114 342.516,404.421 343.31,404.421 343.31,409.114 "/>
<polygon points="351.485,409.114 350.691,409.114 350.691,404.421 351.485,404.421 351.485,409.114 "/>
<polygon points="367.833,409.114 367.04,409.114 367.04,404.421 367.833,404.421 367.833,409.114 "/>
<polygon points="359.659,409.114 358.865,409.114 358.865,404.421 359.659,404.421 359.659,409.114 "/>
<polygon points="376.008,409.114 375.214,409.114 375.214,404.421 376.008,404.421 376.008,409.114 "/>
<polygon points="384.182,409.114 383.388,409.114 383.388,404.421 384.182,404.421 384.182,409.114 "/>
<polygon points="392.357,409.114 391.563,409.114 391.563,404.421 392.357,404.421 392.357,409.114 "/>
<polygon points="400.531,409.114 399.738,409.114 399.738,404.421 400.531,404.421 400.531,409.114 "/>
<polygon points="408.705,409.114 407.912,409.114 407.912,404.421 408.705,404.421 408.705,409.114 "/>
<polygon points="416.88,409.114 416.087,409.114 416.087,404.421 416.88,404.421 416.88,409.114 "/>
<polygon points="433.229,409.114 432.437,409.114 432.437,404.421 433.229,404.421 433.229,409.114 "/>
<polygon points="425.055,409.114 424.262,409.114 424.262,404.421 425.055,404.421 425.055,409.114 "/>
<polygon points="441.403,409.114 440.61,409.114 440.61,404.421 441.403,404.421 441.403,409.114 "/>
<polygon points="449.578,409.114 448.785,409.114 448.785,404.421 449.578,404.421 449.578,409.114 "/>
<polygon points="457.753,409.114 456.96,409.114 456.96,404.421 457.753,404.421 457.753,409.114 "/>
<polygon points="465.927,409.114 465.134,409.114 465.134,404.421 465.927,404.421 465.927,409.114 "/>
<polygon points="474.102,409.114 473.309,409.114 473.309,404.421 474.102,404.421 474.102,409.114 "/>
<polygon points="482.276,409.114 481.483,409.114 481.483,404.421 482.276,404.421 482.276,409.114 "/>
<polygon points="498.625,409.114 497.832,409.114 497.832,404.421 498.625,404.421 498.625,409.114 "/>
<polygon points="490.45,409.114 489.657,409.114 489.657,404.421 490.45,404.421 490.45,409.114 "/>
<polygon points="506.8,409.114 506.007,409.114 506.007,404.421 506.8,404.421 506.8,409.114 "/>
<polygon points="514.974,409.114 514.181,409.114 514.181,404.421 514.974,404.421 514.974,409.114 "/>
<polygon points="523.148,409.114 522.355,409.114 522.355,404.421 523.148,404.421 523.148,409.114 "/>
<path d="M388.9,415.541h-2.577v-1.812h7.335v1.812h-2.606v7.731H388.9V415.541z"/>
<path d="M396.629,414.421c0,0.596-0.439,1.076-1.161,1.076c-0.68,0-1.118-0.48-1.118-1.076c0-0.608,0.453-1.076,1.146-1.076
	S396.615,413.813,396.629,414.421z M394.406,423.272v-6.925h2.152v6.925H394.406z"/>
<path d="M398.285,418.556c0-0.863-0.029-1.586-0.057-2.209h1.826l0.085,0.936h0.042c0.298-0.453,0.921-1.105,2.096-1.105
	c0.906,0,1.601,0.468,1.898,1.189h0.027c0.27-0.367,0.566-0.65,0.906-0.85c0.383-0.212,0.808-0.34,1.317-0.34
	c1.331,0,2.337,0.936,2.337,3.017v4.078h-2.096v-3.767c0-1.006-0.326-1.586-1.02-1.586c-0.51,0-0.85,0.34-1.006,0.75
	c-0.043,0.156-0.07,0.369-0.07,0.553v4.05h-2.096v-3.894c0-0.864-0.312-1.459-1.006-1.459c-0.553,0-0.878,0.425-1.006,0.765
	c-0.07,0.17-0.084,0.368-0.084,0.552v4.036h-2.096V418.556z"/>
<path d="M412.115,420.497c0.057,0.892,0.949,1.317,1.954,1.317c0.736,0,1.331-0.1,1.911-0.298l0.283,1.458
	c-0.707,0.298-1.571,0.439-2.506,0.439c-2.351,0-3.695-1.359-3.695-3.525c0-1.756,1.09-3.696,3.497-3.696
	c2.237,0,3.087,1.741,3.087,3.455c0,0.368-0.043,0.694-0.07,0.85H412.115z M414.65,419.024c0-0.524-0.227-1.401-1.219-1.401
	c-0.906,0-1.273,0.835-1.33,1.401H414.65z"/>
<path d="M248.315,353.761h8.083v1.823h-8.083V353.761z"/>
<path d="M252.405,352.201c-0.732,0-1.343,0.023-1.871,0.048v-1.583l0.815-0.084v-0.036c-0.384-0.24-0.947-0.827-0.947-1.811
	c0-1.2,0.803-2.1,2.53-2.1h3.466v1.823h-3.25c-0.756,0-1.271,0.264-1.271,0.924c0,0.504,0.348,0.804,0.684,0.936
	c0.12,0.048,0.288,0.06,0.456,0.06h3.382v1.823H252.405z"/>
<path d="M248.951,343.202h1.583v-1.308h1.343v1.308H254c0.708,0,1.032-0.18,1.032-0.72c0-0.252-0.012-0.372-0.048-0.539l1.379-0.013
	c0.084,0.229,0.156,0.672,0.156,1.176c0,0.588-0.204,1.079-0.504,1.379c-0.348,0.336-0.912,0.504-1.739,0.504h-2.398v0.779h-1.343
	v-0.779h-1.091L248.951,343.202z"/>
<path d="M254.048,339.494c0.755-0.048,1.115-0.804,1.115-1.655c0-0.624-0.084-1.127-0.252-1.619l1.235-0.239
	c0.252,0.6,0.372,1.331,0.372,2.122c0,1.991-1.151,3.131-2.986,3.131c-1.487,0-3.13-0.924-3.13-2.963
	c0-1.895,1.475-2.614,2.926-2.614c0.312,0,0.588,0.036,0.72,0.06V339.494z M252.801,337.347c-0.444,0-1.187,0.191-1.187,1.031
	c0,0.768,0.708,1.079,1.187,1.127V337.347z"/>
<path d="M252.405,334.561c-0.732,0-1.343,0.023-1.871,0.048v-1.583l0.815-0.084v-0.036c-0.384-0.24-0.947-0.827-0.947-1.811
	c0-1.2,0.803-2.1,2.53-2.1h3.466v1.823h-3.25c-0.756,0-1.271,0.264-1.271,0.924c0,0.504,0.348,0.804,0.684,0.936
	c0.12,0.048,0.288,0.06,0.456,0.06h3.382v1.823H252.405z"/>
<path d="M254.816,327.541c0.204-0.336,0.432-1.031,0.432-1.571c0-0.552-0.18-0.779-0.48-0.779c-0.312,0-0.456,0.18-0.684,0.852
	c-0.408,1.224-1.067,1.691-1.763,1.679c-1.104,0-1.931-0.936-1.931-2.387c0-0.684,0.168-1.283,0.348-1.643l1.259,0.312
	c-0.144,0.264-0.336,0.779-0.336,1.271c0,0.443,0.18,0.695,0.468,0.695c0.288,0,0.432-0.228,0.684-0.947
	c0.384-1.115,0.959-1.571,1.811-1.583c1.104,0,1.907,0.852,1.907,2.53c0,0.768-0.18,1.451-0.419,1.896L254.816,327.541z"/>
<path d="M248.903,320.438c0.504,0,0.912,0.371,0.912,0.983c0,0.575-0.408,0.947-0.912,0.947c-0.516,0-0.911-0.384-0.911-0.972
	S248.387,320.45,248.903,320.438z M256.399,322.321h-5.865v-1.823h5.865V322.321z"/>
<path d="M248.951,316.995h1.583v-1.308h1.343v1.308H254c0.708,0,1.032-0.18,1.032-0.72c0-0.252-0.012-0.372-0.048-0.539l1.379-0.013
	c0.084,0.229,0.156,0.672,0.156,1.176c0,0.588-0.204,1.079-0.504,1.379c-0.348,0.336-0.912,0.504-1.739,0.504h-2.398v0.779h-1.343
	v-0.779h-1.091L248.951,316.995z"/>
<path d="M250.534,313.203l2.891-0.876c0.335-0.096,0.779-0.216,1.091-0.288v-0.048c-0.324-0.071-0.756-0.168-1.104-0.252
	l-2.878-0.731v-1.942l3.862,1.367c2.339,0.839,3.262,1.403,3.85,2.062c0.552,0.624,0.755,1.296,0.803,1.751l-1.535,0.396
	c-0.048-0.229-0.156-0.517-0.312-0.792c-0.144-0.276-0.444-0.588-0.732-0.756c-0.096-0.06-0.192-0.096-0.264-0.096
	s-0.156,0.012-0.3,0.072l-5.373,2.158V313.203z"/>
<path d="M71.957,161.75h1.195l-1.656,8.671h3.918l-0.202,1.037h-5.099L71.957,161.75z"/>
<path d="M81.014,171.458c0-0.417,0.072-1.081,0.159-1.8h-0.029c-0.749,1.455-1.714,1.959-2.708,1.959
	c-1.239,0-2.002-0.979-2.002-2.305c0-2.435,1.786-4.984,4.825-4.984c0.677,0,1.397,0.115,1.887,0.26l-0.72,3.644
	c-0.23,1.21-0.317,2.449-0.288,3.227H81.014z M81.792,165.38c-0.159-0.058-0.418-0.101-0.821-0.101
	c-1.815,0-3.299,1.872-3.299,3.817c0,0.778,0.274,1.542,1.196,1.542c0.994,0,2.175-1.297,2.521-3.155L81.792,165.38z"/>
<path d="M83.922,171.458l0.85-4.494c0.158-0.908,0.273-1.83,0.346-2.478h1.052c-0.058,0.49-0.115,0.979-0.188,1.512h0.043
	c0.447-0.95,1.196-1.671,2.132-1.671c0.115,0,0.245,0.015,0.346,0.029l-0.23,1.181c-0.086-0.014-0.201-0.028-0.331-0.028
	c-1.037,0-1.959,1.253-2.262,2.881l-0.576,3.068H83.922z"/>
<path d="M88.444,173.043c0.417,0.273,1.123,0.461,1.844,0.461c1.181,0,2.103-0.591,2.506-2.478l0.23-1.052h-0.028
	c-0.62,0.994-1.47,1.484-2.42,1.484c-1.412,0-2.132-1.181-2.132-2.42c0-2.362,1.729-4.71,4.422-4.71c0.807,0,1.7,0.23,2.247,0.49
	l-1.08,5.762c-0.274,1.483-0.677,2.492-1.397,3.125c-0.706,0.59-1.642,0.763-2.435,0.763c-0.85,0-1.656-0.201-2.088-0.489
	L88.444,173.043z M93.802,165.524c-0.23-0.101-0.663-0.23-1.152-0.23c-1.743,0-2.953,1.83-2.953,3.543
	c-0.015,0.778,0.273,1.671,1.34,1.671c1.022,0,2.06-1.296,2.319-2.65L93.802,165.524z"/>
<path d="M100.944,171.069c-0.519,0.288-1.368,0.548-2.305,0.548c-1.844,0-2.65-1.268-2.65-2.809c0-2.103,1.556-4.48,3.803-4.48
	c1.325,0,2.046,0.792,2.046,1.801c0,1.829-2.06,2.305-4.639,2.262c-0.058,0.302-0.014,0.95,0.145,1.325
	c0.273,0.634,0.835,0.936,1.556,0.936c0.821,0,1.44-0.245,1.872-0.475L100.944,171.069z M99.619,165.265
	c-1.138,0-1.987,1.109-2.29,2.204c1.887,0.028,3.356-0.23,3.356-1.325C100.685,165.582,100.252,165.265,99.619,165.265z"/>
<path d="M102.455,171.458l0.85-4.494c0.158-0.908,0.273-1.83,0.346-2.478h1.052c-0.058,0.49-0.115,0.979-0.188,1.512h0.043
	c0.447-0.95,1.196-1.671,2.132-1.671c0.115,0,0.245,0.015,0.346,0.029l-0.23,1.181c-0.086-0.014-0.201-0.028-0.331-0.028
	c-1.037,0-1.959,1.253-2.262,2.881l-0.576,3.068H102.455z"/>
<path d="M111.512,161.894c0.533-0.129,1.311-0.216,2.103-0.216c0.936,0,1.83,0.23,2.376,0.749c0.461,0.418,0.706,0.994,0.706,1.758
	c0,1.08-0.533,2.002-1.167,2.535c-0.749,0.634-1.844,0.922-2.938,0.922c-0.374,0-0.691-0.029-0.994-0.072l-0.735,3.889h-1.181
	L111.512,161.894z M111.786,166.561c0.332,0.072,0.62,0.101,0.965,0.101c1.642,0,2.737-1.023,2.737-2.392
	c0-1.167-0.821-1.627-1.93-1.627c-0.475,0-0.835,0.043-1.051,0.101L111.786,166.561z"/>
<path d="M121.261,171.458c0-0.417,0.072-1.081,0.159-1.8h-0.029c-0.749,1.455-1.714,1.959-2.708,1.959
	c-1.239,0-2.002-0.979-2.002-2.305c0-2.435,1.786-4.984,4.825-4.984c0.677,0,1.397,0.115,1.887,0.26l-0.72,3.644
	c-0.23,1.21-0.317,2.449-0.288,3.227H121.261z M122.04,165.38c-0.159-0.058-0.418-0.101-0.821-0.101
	c-1.815,0-3.299,1.872-3.299,3.817c0,0.778,0.274,1.542,1.196,1.542c0.994,0,2.175-1.297,2.521-3.155L122.04,165.38z"/>
<path d="M124.168,171.458l0.85-4.494c0.159-0.908,0.274-1.83,0.346-2.478h1.051c-0.058,0.49-0.115,0.979-0.187,1.512h0.043
	c0.446-0.95,1.195-1.671,2.132-1.671c0.115,0,0.245,0.015,0.346,0.029l-0.23,1.181c-0.087-0.014-0.202-0.028-0.332-0.028
	c-1.037,0-1.959,1.253-2.261,2.881l-0.576,3.068H124.168z"/>
<path d="M132.19,162.816l-0.317,1.671h1.671l-0.188,0.936h-1.671l-0.634,3.385c-0.086,0.389-0.144,0.749-0.144,1.109
	c0,0.418,0.201,0.677,0.662,0.677c0.216,0,0.403-0.014,0.562-0.058l-0.058,0.936c-0.216,0.087-0.576,0.13-0.922,0.13
	c-1.051,0-1.469-0.634-1.469-1.354c0-0.403,0.058-0.792,0.158-1.296l0.677-3.529h-0.994l0.173-0.936h0.994l0.245-1.296
	L132.19,162.816z"/>
<path d="M133.615,171.458l1.34-6.972h1.181l-1.325,6.972H133.615z M135.17,162.557c0.015-0.461,0.36-0.807,0.778-0.807
	c0.432,0,0.72,0.317,0.72,0.749c-0.015,0.476-0.346,0.807-0.821,0.807C135.43,163.306,135.17,162.989,135.17,162.557z"/>
<path d="M141.708,171.17c-0.36,0.187-1.08,0.432-2.017,0.432c-1.8,0-2.679-1.21-2.679-2.693c0-2.377,1.757-4.566,4.264-4.566
	c0.648,0,1.238,0.188,1.455,0.303l-0.346,0.95c-0.274-0.129-0.663-0.259-1.181-0.259c-1.815,0-2.953,1.786-2.953,3.428
	c0,1.124,0.591,1.858,1.729,1.858c0.721,0,1.253-0.216,1.613-0.389L141.708,171.17z"/>
<path d="M143.018,171.458l1.944-10.227h1.195l-1.944,10.227H143.018z"/>
<path d="M151.328,171.069c-0.519,0.288-1.368,0.548-2.305,0.548c-1.844,0-2.65-1.268-2.65-2.809c0-2.103,1.556-4.48,3.803-4.48
	c1.325,0,2.046,0.792,2.046,1.801c0,1.829-2.06,2.305-4.639,2.262c-0.058,0.302-0.014,0.95,0.145,1.325
	c0.273,0.634,0.835,0.936,1.556,0.936c0.821,0,1.44-0.245,1.872-0.475L151.328,171.069z M150.002,165.265
	c-1.138,0-1.987,1.109-2.29,2.204c1.887,0.028,3.356-0.23,3.356-1.325C151.069,165.582,150.636,165.265,150.002,165.265z"/>
<path d="M152.896,170.249c0.331,0.202,0.922,0.432,1.498,0.432c0.807,0,1.325-0.519,1.325-1.138c0-0.548-0.245-0.879-0.979-1.282
	c-0.807-0.446-1.253-1.066-1.253-1.786c0-1.21,1.051-2.146,2.521-2.146c0.634,0,1.195,0.173,1.455,0.346l-0.332,0.908
	c-0.245-0.144-0.691-0.317-1.21-0.317c-0.72,0-1.238,0.446-1.238,1.052c0,0.504,0.331,0.821,0.965,1.167
	c0.778,0.432,1.296,1.051,1.296,1.83c0,1.469-1.181,2.29-2.65,2.29c-0.749-0.015-1.426-0.23-1.743-0.476L152.896,170.249z"/>
<path d="M72.271,367.161c0.533,0.36,1.253,0.619,2.06,0.619c1.095,0,2.104-0.648,2.104-1.814c0-0.721-0.403-1.268-1.426-1.815
	c-1.239-0.677-1.93-1.454-1.93-2.491c0-1.743,1.498-2.853,3.284-2.853c0.951,0,1.656,0.273,1.988,0.504l-0.432,0.979
	c-0.303-0.188-0.907-0.461-1.686-0.461c-1.195,0-1.916,0.793-1.916,1.585s0.49,1.238,1.512,1.8c1.196,0.648,1.844,1.412,1.844,2.607
	c0,1.671-1.311,2.996-3.5,2.996c-0.965-0.014-1.93-0.316-2.333-0.677L72.271,367.161z"/>
<path d="M78.795,368.659l0.922-4.94c0.144-0.778,0.245-1.455,0.316-2.031h1.052l-0.173,1.311h0.029
	c0.648-0.979,1.527-1.469,2.449-1.469c1.066,0,1.57,0.677,1.628,1.556c0.619-1.009,1.512-1.541,2.549-1.556
	c0.807,0,1.7,0.519,1.7,1.829c0,0.316-0.043,0.792-0.115,1.182l-0.778,4.119h-1.167l0.749-4.019c0.058-0.274,0.101-0.62,0.101-0.907
	c0-0.735-0.273-1.211-1.052-1.211c-0.864,0-1.901,1.009-2.189,2.564l-0.662,3.572h-1.152l0.777-4.091
	c0.058-0.317,0.087-0.576,0.087-0.85c0-0.591-0.159-1.196-1.037-1.196c-0.864,0-1.959,1.152-2.233,2.637l-0.634,3.5H78.795z"/>
<path d="M95.039,368.659c0-0.418,0.072-1.08,0.158-1.801h-0.029c-0.749,1.455-1.714,1.959-2.708,1.959
	c-1.239,0-2.002-0.979-2.002-2.305c0-2.434,1.786-4.983,4.826-4.983c0.677,0,1.397,0.115,1.887,0.259l-0.721,3.645
	c-0.23,1.21-0.316,2.449-0.288,3.227H95.039z M95.816,362.581c-0.158-0.059-0.417-0.102-0.821-0.102
	c-1.815,0-3.298,1.873-3.298,3.817c0,0.778,0.273,1.541,1.195,1.541c0.994,0,2.175-1.296,2.521-3.154L95.816,362.581z"/>
<path d="M97.946,368.659l1.944-10.227h1.195l-1.944,10.227H97.946z"/>
<path d="M101.244,368.659l1.944-10.227h1.195l-1.944,10.227H101.244z"/>
<path d="M109.554,368.27c-0.519,0.288-1.368,0.547-2.305,0.547c-1.844,0-2.65-1.268-2.65-2.809c0-2.104,1.556-4.479,3.803-4.479
	c1.325,0,2.046,0.792,2.046,1.8c0,1.83-2.06,2.305-4.639,2.262c-0.058,0.303-0.014,0.951,0.145,1.325
	c0.273,0.634,0.835,0.937,1.556,0.937c0.821,0,1.44-0.245,1.872-0.476L109.554,368.27z M108.229,362.465
	c-1.138,0-1.987,1.108-2.29,2.203c1.887,0.029,3.356-0.23,3.356-1.325C109.295,362.782,108.862,362.465,108.229,362.465z"/>
<path d="M111.064,368.659l0.85-4.494c0.158-0.907,0.273-1.829,0.346-2.478h1.052c-0.058,0.489-0.115,0.979-0.188,1.513h0.043
	c0.447-0.951,1.196-1.671,2.132-1.671c0.115,0,0.245,0.015,0.346,0.028l-0.23,1.182c-0.086-0.015-0.201-0.029-0.331-0.029
	c-1.037,0-1.959,1.254-2.262,2.881l-0.576,3.068H111.064z"/>
<path d="M120.122,359.094c0.533-0.13,1.311-0.216,2.103-0.216c0.936,0,1.83,0.23,2.376,0.749c0.461,0.418,0.706,0.994,0.706,1.757
	c0,1.081-0.533,2.003-1.167,2.535c-0.749,0.634-1.844,0.922-2.938,0.922c-0.374,0-0.691-0.028-0.994-0.071l-0.735,3.889h-1.181
	L120.122,359.094z M120.396,363.761c0.332,0.072,0.62,0.101,0.965,0.101c1.642,0,2.737-1.022,2.737-2.391
	c0-1.167-0.821-1.628-1.93-1.628c-0.475,0-0.835,0.043-1.051,0.101L120.396,363.761z"/>
<path d="M129.871,368.659c0-0.418,0.072-1.08,0.159-1.801h-0.029c-0.749,1.455-1.714,1.959-2.708,1.959
	c-1.239,0-2.002-0.979-2.002-2.305c0-2.434,1.786-4.983,4.825-4.983c0.677,0,1.397,0.115,1.887,0.259l-0.72,3.645
	c-0.23,1.21-0.317,2.449-0.288,3.227H129.871z M130.649,362.581c-0.159-0.059-0.418-0.102-0.821-0.102
	c-1.815,0-3.299,1.873-3.299,3.817c0,0.778,0.274,1.541,1.196,1.541c0.994,0,2.175-1.296,2.521-3.154L130.649,362.581z"/>
<path d="M132.778,368.659l0.85-4.494c0.159-0.907,0.274-1.829,0.346-2.478h1.051c-0.058,0.489-0.115,0.979-0.187,1.513h0.043
	c0.446-0.951,1.195-1.671,2.132-1.671c0.115,0,0.245,0.015,0.346,0.028l-0.23,1.182c-0.087-0.015-0.202-0.029-0.332-0.029
	c-1.037,0-1.959,1.254-2.261,2.881l-0.576,3.068H132.778z"/>
<path d="M140.8,360.016l-0.317,1.671h1.671l-0.188,0.937h-1.671l-0.634,3.385c-0.086,0.389-0.144,0.749-0.144,1.109
	c0,0.418,0.201,0.677,0.662,0.677c0.216,0,0.403-0.015,0.562-0.058l-0.058,0.937c-0.216,0.086-0.576,0.13-0.922,0.13
	c-1.051,0-1.469-0.635-1.469-1.354c0-0.403,0.058-0.792,0.158-1.296l0.677-3.529h-0.994l0.173-0.937h0.994l0.245-1.296
	L140.8,360.016z"/>
<path d="M142.225,368.659l1.34-6.972h1.181l-1.325,6.972H142.225z M143.78,359.756c0.015-0.461,0.36-0.807,0.778-0.807
	c0.432,0,0.72,0.317,0.72,0.75c-0.015,0.475-0.346,0.807-0.821,0.807C144.04,360.506,143.78,360.189,143.78,359.756z"/>
<path d="M150.318,368.371c-0.36,0.188-1.08,0.433-2.017,0.433c-1.8,0-2.679-1.211-2.679-2.694c0-2.376,1.757-4.565,4.264-4.565
	c0.648,0,1.238,0.187,1.455,0.302l-0.346,0.951c-0.274-0.13-0.663-0.26-1.181-0.26c-1.815,0-2.953,1.786-2.953,3.429
	c0,1.123,0.591,1.857,1.729,1.857c0.721,0,1.253-0.216,1.613-0.389L150.318,368.371z"/>
<path d="M151.628,368.659l1.944-10.227h1.195l-1.944,10.227H151.628z"/>
<path d="M159.938,368.27c-0.519,0.288-1.368,0.547-2.305,0.547c-1.844,0-2.65-1.268-2.65-2.809c0-2.104,1.556-4.479,3.803-4.479
	c1.325,0,2.046,0.792,2.046,1.8c0,1.83-2.06,2.305-4.639,2.262c-0.058,0.303-0.014,0.951,0.145,1.325
	c0.273,0.634,0.835,0.937,1.556,0.937c0.821,0,1.44-0.245,1.872-0.476L159.938,368.27z M158.612,362.465
	c-1.138,0-1.987,1.108-2.29,2.203c1.887,0.029,3.356-0.23,3.356-1.325C159.679,362.782,159.246,362.465,158.612,362.465z"/>
<path d="M161.506,367.449c0.331,0.202,0.922,0.433,1.498,0.433c0.807,0,1.325-0.52,1.325-1.139c0-0.547-0.245-0.879-0.979-1.281
	c-0.807-0.447-1.253-1.066-1.253-1.787c0-1.209,1.051-2.146,2.521-2.146c0.634,0,1.195,0.173,1.455,0.346l-0.332,0.907
	c-0.245-0.145-0.691-0.316-1.21-0.316c-0.72,0-1.238,0.446-1.238,1.051c0,0.504,0.331,0.821,0.965,1.167
	c0.778,0.433,1.296,1.052,1.296,1.829c0,1.47-1.181,2.291-2.65,2.291c-0.749-0.015-1.426-0.23-1.743-0.476L161.506,367.449z"/>
<path fill="#ED1F24" d="M315.707,393.16l-1.048-2.097c-1.316-2.634-4.339-29.336-8.154-63.971
	c-1.191-10.813-2.25-20.425-2.782-24.521c-5.998,4.006-7.217,20.312-8.126,32.469c-0.325,4.348-0.632,8.454-1.113,11.58
	l-0.497,3.227l-2.125-2.479c-5.814-6.784-7.167-12.845-8.916-22.396c-1.964,2.956-4.773,11.054-6.099,14.876
	c-1.491,4.298-2.371,6.782-3.099,7.875c-0.46,0.688-1.391,0.876-2.08,0.416s-0.875-1.391-0.416-2.08
	c0.551-0.827,1.674-4.064,2.76-7.194c3.767-10.857,6.497-17.974,9.988-17.974h1.252l0.335,1.843
	c1.614,8.883,2.608,14.355,6.372,19.854c0.239-2.35,0.438-5.012,0.645-7.772c1.11-14.837,2.491-33.301,11.917-35.872l1.55-0.423
	l0.315,1.576c0.362,1.811,1.511,12.236,3.1,26.665c2.01,18.247,5.117,46.455,6.877,57.97c1.847-8.43,3.875-25.827,5.326-38.281
	c1.636-14.033,2.601-22.072,3.418-24.116l0.74-1.852l1.573,1.225c7.033,5.47,7.645,7.24,8.875,13.148
	c0.243,1.167,0.529,2.543,0.934,4.183c1.62-0.801,3.066-0.903,4.318-0.304c3.805,1.825,4.055,9.404,4.345,18.181
	c0.121,3.66,0.251,7.614,0.708,10.774c5.089-22.151,7.305-48.739,9.112-70.423l0.386-4.638l2.395,3.991
	c2.693,4.488,3.03,10.682,3.356,16.671c0.404,7.41,0.787,14.442,5.25,17.94c5.896-11.722,9.524-28.33,9.524-43.84l2.961-0.337
	c1.006,4.357,1.287,11.338,1.612,19.422c0.56,13.906,1.312,32.604,6.896,38.561c3.04-5.931,7.041-13.05,9.662-17.417l1.863-3.105
	l0.878,3.513c1.72,6.878,3.414,8.348,3.774,8.364c0.018-0.002,1.934-0.615,3.74-10.201c0.259-3.095,0.474-4.726,1.947-5.031
	c1.363-0.277,2.029,0.961,2.673,2.161c0.639,1.193,1.709,3.19,2.928,3.31c0.936,0.09,2.286-0.863,3.779-2.688l1.351-1.649
	l1.097,1.828c1.421,2.367,2.752,7.08,4.161,12.068c1.132,4.007,2.365,8.373,3.678,11.583c1.164-6.821,3.453-18.949,5.526-29.939
	c1.591-8.429,3.223-17.077,3.938-21.195l-0.579,0.21l0.938-2.915c0.383-1.191,1.312-1.228,1.695-1.188
	c1.896-0.461,3.28,0.068,4.141,0.636c4.346,2.873,4.892,12.991,5.419,22.776c0.233,4.337,0.474,8.78,1.063,11.762
	c1.081-1.019,2.52-2.026,4.059-3.104c1.787-1.252,4.234-2.967,4.545-3.897l0.475-1.423l1.423,0.475
	c2.379,0.793,4.063,0.834,5.008,0.127c1.875-1.406,1.692-6.183,1.516-10.801c-0.211-5.516-0.429-11.219,2.26-14.803l1.644-2.191
	l0.961,2.564c1.649,4.399,2.771,5.204,3.293,5.293c0.612,0.098,1.89-0.465,4.608-3.727l1.954-2.345l0.662,2.98
	c3.748,16.862,7.002,35.346,9.962,53.012c0.984-0.921,2.128-1.867,3.306-2.842c1.996-1.652,4.06-3.36,4.938-4.677l1.015-1.522
	l1.294,1.294c3.953,3.952,5.635,9.812,7.261,15.477c0.711,2.476,1.438,5.013,2.353,7.354c2.314-4.587,2.693-10.162,3.092-16.012
	c0.509-7.476,1.035-15.205,6.036-20.762c0.556-0.613,1.502-0.666,2.119-0.111c0.615,0.555,0.665,1.503,0.111,2.119
	c-4.309,4.786-4.777,11.67-5.273,18.957c-0.478,7.011-0.971,14.261-5.088,19.921l-1.451,1.996l-1.104-2.207
	c-1.609-3.219-2.661-6.883-3.679-10.427c-1.407-4.903-2.746-9.566-5.393-12.934c-1.162,1.233-2.708,2.513-4.317,3.845
	c-1.996,1.652-4.06,3.36-4.938,4.677l-2.104,3.156l-0.623-3.741c-2.927-17.559-6.134-36.071-9.819-53.078
	c-1.714,1.7-3.524,2.88-5.422,2.554c-1.63-0.276-2.942-1.491-4.235-4.027c-0.701,2.802-0.561,6.491-0.423,10.092
	c0.215,5.64,0.419,10.966-2.714,13.316c-1.589,1.19-3.747,1.413-6.577,0.672c-1.039,1.362-2.888,2.658-4.951,4.104
	c-1.626,1.14-4.653,3.26-4.712,4.123v5.648l-2.803-4.907c-1.625-2.845-1.949-8.856-2.325-15.817
	c-0.441-8.195-0.991-18.395-4.077-20.435c-0.268-0.177-0.673-0.369-1.324-0.304c-0.042,0.268-0.09,0.557-0.143,0.87
	c-0.212,1.259-0.535,3.065-0.939,5.267c-0.805,4.387-1.93,10.349-3.123,16.671c-2.666,14.129-5.688,30.144-6.194,34.19l-0.44,3.524
	l-2.219-2.773c-2.434-3.041-4.341-9.794-6.186-16.325c-1.028-3.639-2.013-7.124-2.959-9.477c-1.665,1.557-3.265,2.252-4.833,2.088
	c-1.974-0.191-3.323-1.667-4.271-3.125c-0.001,0.009-0.002,0.018-0.002,0.026l-0.021,0.151c-1.611,8.593-3.713,12.636-6.614,12.723
	c-0.032,0.001-0.063,0.001-0.095,0.001c-2.232,0-4.111-2.372-5.705-7.225c-2.723,4.699-6.145,10.912-8.636,15.896l-0.744,1.487
	l-1.403-0.893c-8.091-5.148-8.88-24.759-9.577-42.061c-0.018-0.432-0.035-0.862-0.052-1.29c-1.739,10.725-4.934,20.946-9.161,28.796
	l-0.715,1.328l-1.324-0.723c-7.148-3.898-7.629-12.722-8.094-21.253c-0.159-2.926-0.321-5.903-0.766-8.629
	c-1.882,22.124-4.411,47.947-9.888,68.944l-0.879,3.368l-1.845-2.952c-2.128-3.405-2.349-10.092-2.583-17.171
	c-0.203-6.135-0.48-14.537-2.644-15.575c-0.597-0.284-1.687,0.12-3.06,1.151l-1.766,1.324l-0.581-2.13
	c-0.716-2.626-1.143-4.673-1.485-6.318c-0.96-4.612-1.265-6.075-5.954-9.936c-0.73,4.052-1.747,12.774-2.736,21.266
	c-2.808,24.097-4.99,41.396-7.498,44.531L315.707,393.16L315.707,393.16z"/>
<path d="M248.315,149.761h8.083v1.823h-8.083V149.761z"/>
<path d="M252.405,148.201c-0.732,0-1.343,0.023-1.871,0.048v-1.583l0.815-0.084v-0.036c-0.384-0.24-0.947-0.827-0.947-1.811
	c0-1.2,0.803-2.1,2.53-2.1h3.466v1.823h-3.25c-0.756,0-1.271,0.264-1.271,0.924c0,0.504,0.348,0.804,0.684,0.936
	c0.12,0.048,0.288,0.06,0.456,0.06h3.382v1.823H252.405z"/>
<path d="M248.951,139.202h1.583v-1.308h1.343v1.308H254c0.708,0,1.032-0.18,1.032-0.72c0-0.252-0.012-0.372-0.048-0.539l1.379-0.013
	c0.084,0.229,0.156,0.672,0.156,1.176c0,0.588-0.204,1.079-0.504,1.379c-0.348,0.336-0.912,0.504-1.739,0.504h-2.398v0.779h-1.343
	v-0.779h-1.091L248.951,139.202z"/>
<path d="M254.048,135.494c0.755-0.048,1.115-0.804,1.115-1.655c0-0.624-0.084-1.127-0.252-1.619l1.235-0.239
	c0.252,0.6,0.372,1.331,0.372,2.122c0,1.991-1.151,3.131-2.986,3.131c-1.487,0-3.13-0.924-3.13-2.963
	c0-1.895,1.475-2.614,2.926-2.614c0.312,0,0.588,0.036,0.72,0.06V135.494z M252.801,133.347c-0.444,0-1.187,0.191-1.187,1.031
	c0,0.768,0.708,1.079,1.187,1.127V133.347z"/>
<path d="M252.405,130.561c-0.732,0-1.343,0.023-1.871,0.048v-1.583l0.815-0.084v-0.036c-0.384-0.24-0.947-0.827-0.947-1.811
	c0-1.2,0.803-2.1,2.53-2.1h3.466v1.823h-3.25c-0.756,0-1.271,0.264-1.271,0.924c0,0.504,0.348,0.804,0.684,0.936
	c0.12,0.048,0.288,0.06,0.456,0.06h3.382v1.823H252.405z"/>
<path d="M254.816,123.541c0.204-0.336,0.432-1.031,0.432-1.571c0-0.552-0.18-0.779-0.48-0.779c-0.312,0-0.456,0.18-0.684,0.852
	c-0.408,1.224-1.067,1.691-1.763,1.679c-1.104,0-1.931-0.936-1.931-2.387c0-0.684,0.168-1.283,0.348-1.643l1.259,0.312
	c-0.144,0.264-0.336,0.779-0.336,1.271c0,0.443,0.18,0.695,0.468,0.695c0.288,0,0.432-0.228,0.684-0.947
	c0.384-1.115,0.959-1.571,1.811-1.583c1.104,0,1.907,0.852,1.907,2.53c0,0.768-0.18,1.451-0.419,1.896L254.816,123.541z"/>
<path d="M248.903,116.438c0.504,0,0.912,0.371,0.912,0.983c0,0.575-0.408,0.947-0.912,0.947c-0.516,0-0.911-0.384-0.911-0.972
	S248.387,116.45,248.903,116.438z M256.399,118.321h-5.865v-1.823h5.865V118.321z"/>
<path d="M248.951,112.995h1.583v-1.308h1.343v1.308H254c0.708,0,1.032-0.18,1.032-0.72c0-0.252-0.012-0.372-0.048-0.539l1.379-0.013
	c0.084,0.229,0.156,0.672,0.156,1.176c0,0.588-0.204,1.079-0.504,1.379c-0.348,0.336-0.912,0.504-1.739,0.504h-2.398v0.779h-1.343
	v-0.779h-1.091L248.951,112.995z"/>
<path d="M250.534,109.203l2.891-0.876c0.335-0.096,0.779-0.216,1.091-0.288v-0.048c-0.324-0.071-0.756-0.168-1.104-0.252
	l-2.878-0.731v-1.942l3.862,1.367c2.339,0.839,3.262,1.403,3.85,2.062c0.552,0.624,0.755,1.296,0.803,1.751l-1.535,0.396
	c-0.048-0.229-0.156-0.517-0.312-0.792c-0.144-0.276-0.444-0.588-0.732-0.756c-0.096-0.06-0.192-0.096-0.264-0.096
	s-0.156,0.012-0.3,0.072l-5.373,2.158V109.203z"/>
<polygon points="269.666,366.91 262.994,366.91 262.994,363.91 269.666,363.91 269.666,366.91 "/>
<polygon points="269.666,328.263 262.994,328.263 262.994,325.263 269.666,325.263 269.666,328.263 "/>
<polygon points="269.666,289.617 262.994,289.617 262.994,286.617 269.666,286.617 269.666,289.617 "/>
<polygon points="527.666,405.555 268.166,405.555 268.166,270.722 271.166,270.722 271.166,402.555 527.666,402.555 
	527.666,405.555 "/>
<rect x="456.395" y="34.309" width="6.134" height="13.961"/>
<radialGradient id="SVGID_11_" cx="545.2412" cy="12.9443" r="83.4876" fx="559.5191" fy="16.2363" gradientUnits="userSpaceOnUse">
	<stop  offset="0" style="stop-color:#FFFFFF"/>
	<stop  offset="1" style="stop-color:#000000"/>
</radialGradient>
<path fill="url(#SVGID_11_)" stroke="#000000" d="M460.202,45.347c0,4.418,3.582,8,8,8h68.403c4.418,0,8-3.582,8-8v-7.48
	c0-4.418-3.582-8-8-8h-68.403c-4.418,0-8,3.582-8,8V45.347z"/>
<rect x="456.395" y="238.098" width="6.134" height="13.961"/>
<radialGradient id="SVGID_12_" cx="545.2412" cy="216.7329" r="83.4876" fx="559.5191" fy="220.0249" gradientUnits="userSpaceOnUse">
	<stop  offset="0" style="stop-color:#FFFFFF"/>
	<stop  offset="1" style="stop-color:#000000"/>
</radialGradient>
<path fill="url(#SVGID_12_)" stroke="#000000" d="M460.202,249.135c0,4.418,3.582,8,8,8h68.403c4.418,0,8-3.582,8-8v-7.48
	c0-4.418-3.582-8-8-8h-68.403c-4.418,0-8,3.582-8,8V249.135z"/>
<path fill="#ED1F24" d="M488.907,18.309h0.995l-1.379,7.22h3.262l-0.168,0.863h-4.245L488.907,18.309z"/>
<path fill="#ED1F24" d="M496.453,26.392c0-0.348,0.061-0.899,0.132-1.499h-0.023c-0.624,1.211-1.428,1.631-2.255,1.631
	c-1.031,0-1.667-0.815-1.667-1.919c0-2.027,1.487-4.149,4.018-4.149c0.563,0,1.163,0.096,1.571,0.216l-0.6,3.034
	c-0.192,1.007-0.264,2.039-0.24,2.687H496.453z M497.101,21.331c-0.132-0.048-0.348-0.084-0.684-0.084
	c-1.511,0-2.746,1.559-2.746,3.178c0,0.647,0.228,1.283,0.995,1.283c0.828,0,1.812-1.08,2.099-2.626L497.101,21.331z"/>
<path fill="#ED1F24" d="M498.928,25.385c0.276,0.168,0.768,0.36,1.248,0.36c0.671,0,1.103-0.432,1.103-0.948
	c0-0.456-0.203-0.731-0.815-1.067c-0.671-0.372-1.043-0.887-1.043-1.487c0-1.007,0.875-1.787,2.099-1.787
	c0.527,0,0.995,0.144,1.211,0.288l-0.275,0.755c-0.204-0.12-0.576-0.264-1.008-0.264c-0.6,0-1.031,0.372-1.031,0.875
	c0,0.42,0.276,0.684,0.804,0.972c0.647,0.36,1.079,0.875,1.079,1.523c0,1.224-0.983,1.907-2.206,1.907
	c-0.624-0.012-1.188-0.192-1.451-0.396L498.928,25.385z"/>
<path fill="#ED1F24" d="M507.529,26.068c-0.432,0.24-1.14,0.456-1.919,0.456c-1.535,0-2.207-1.055-2.207-2.339
	c0-1.751,1.296-3.729,3.167-3.729c1.103,0,1.702,0.659,1.702,1.499c0,1.523-1.715,1.919-3.861,1.883
	c-0.048,0.252-0.012,0.792,0.12,1.104c0.228,0.528,0.695,0.779,1.295,0.779c0.684,0,1.199-0.204,1.56-0.396L507.529,26.068z
	 M506.426,21.235c-0.947,0-1.655,0.923-1.907,1.835c1.571,0.024,2.795-0.192,2.795-1.104
	C507.313,21.499,506.954,21.235,506.426,21.235z"/>
<path fill="#ED1F24" d="M508.791,26.392l0.708-3.742c0.132-0.755,0.228-1.523,0.288-2.062h0.875
	c-0.048,0.408-0.096,0.815-0.156,1.259h0.036c0.372-0.792,0.996-1.391,1.775-1.391c0.096,0,0.204,0.012,0.288,0.024l-0.192,0.983
	c-0.072-0.012-0.168-0.024-0.275-0.024c-0.864,0-1.632,1.043-1.884,2.398l-0.479,2.555H508.791z"/>
<use xlink:href="#particle"  width="78.832" height="30" x="-39.416" y="-15" transform="matrix(0.5672 0.8236 0.8236 -0.5672 108 33.3921)" overflow="visible"/>
<use xlink:href="#particle"  width="78.832" height="30" x="-39.416" y="-15" transform="matrix(0.407 0.5909 0.5909 -0.407 136.3057 239.457)" overflow="visible"/>
</svg>
